<svg width="20" height="20" viewBox="0 0 20 20" fill="none" xmlns="http://www.w3.org/2000/svg">
<mask id="mask0_698_9333" style="mask-type:alpha" maskUnits="userSpaceOnUse" x="0" y="0" width="20" height="20">
<rect width="20" height="20" fill="#D9D9D9"/>
</mask>
<g mask="url(#mask0_698_9333)">
<path d="M10.0001 13.9419C10.1909 13.9419 10.3507 13.8774 10.4797 13.7484C10.6087 13.6194 10.6732 13.4596 10.6732 13.2689C10.6732 13.0782 10.6087 12.9183 10.4797 12.7893C10.3507 12.6603 10.1909 12.5958 10.0001 12.5958C9.80943 12.5958 9.64958 12.6603 9.52058 12.7893C9.39158 12.9183 9.32708 13.0782 9.32708 13.2689C9.32708 13.4596 9.39158 13.6194 9.52058 13.7484C9.64958 13.8774 9.80943 13.9419 10.0001 13.9419ZM9.37516 10.8971H10.6251V5.89709H9.37516V10.8971ZM10.0015 17.9163C8.90659 17.9163 7.8774 17.7085 6.91395 17.293C5.9505 16.8774 5.11243 16.3135 4.39975 15.6011C3.68705 14.8887 3.12284 14.051 2.7071 13.088C2.29136 12.125 2.0835 11.096 2.0835 10.001C2.0835 8.90611 2.29127 7.87691 2.70683 6.91347C3.12239 5.95001 3.68634 5.11194 4.3987 4.39926C5.11108 3.68656 5.94878 3.12235 6.91181 2.70661C7.87482 2.29088 8.9038 2.08301 9.99875 2.08301C11.0937 2.08301 12.1229 2.29079 13.0863 2.70634C14.0498 3.1219 14.8879 3.68586 15.6005 4.39822C16.3132 5.11059 16.8774 5.94829 17.2932 6.91132C17.7089 7.87433 17.9168 8.90331 17.9168 9.99826C17.9168 11.0932 17.709 12.1224 17.2935 13.0858C16.8779 14.0493 16.3139 14.8874 15.6016 15.6C14.8892 16.3127 14.0515 16.877 13.0885 17.2927C12.1255 17.7084 11.0965 17.9163 10.0015 17.9163ZM10.0001 16.6663C11.8613 16.6663 13.4376 16.0205 14.7293 14.7288C16.021 13.4372 16.6668 11.8608 16.6668 9.99965C16.6668 8.13854 16.021 6.56215 14.7293 5.27049C13.4376 3.97882 11.8613 3.33299 10.0001 3.33299C8.13903 3.33299 6.56264 3.97882 5.27098 5.27049C3.97931 6.56215 3.33348 8.13854 3.33348 9.99965C3.33348 11.8608 3.97931 13.4372 5.27098 14.7288C6.56264 16.0205 8.13903 16.6663 10.0001 16.6663Z" fill="#F15A22"/>
</g>
</svg>
