<svg width="28" height="28" viewBox="0 0 28 28" fill="none" xmlns="http://www.w3.org/2000/svg">
<circle cx="14" cy="14" r="14" fill="#636D85"/>
<mask id="mask0_476_3950" style="mask-type:alpha" maskUnits="userSpaceOnUse" x="4" y="4" width="20" height="20">
<rect x="4" y="4" width="20" height="20" fill="#D9D9D9"/>
</mask>
<g mask="url(#mask0_476_3950)">
<path d="M14.0002 17.8542C14.9585 17.8542 15.771 17.5208 16.4377 16.8542C17.1043 16.1875 17.4377 15.375 17.4377 14.4167C17.4377 13.4583 17.1043 12.6458 16.4377 11.9792C15.771 11.3125 14.9585 10.9792 14.0002 10.9792C13.0418 10.9792 12.2293 11.3125 11.5627 11.9792C10.896 12.6458 10.5627 13.4583 10.5627 14.4167C10.5627 15.375 10.896 16.1875 11.5627 16.8542C12.2293 17.5208 13.0418 17.8542 14.0002 17.8542ZM7.5835 20.6667C7.16683 20.6667 6.81266 20.5208 6.521 20.2292C6.22933 19.9375 6.0835 19.5833 6.0835 19.1667V9.66667C6.0835 9.25 6.22933 8.89583 6.521 8.60417C6.81266 8.3125 7.16683 8.16667 7.5835 8.16667H10.1252L11.6668 6.5H16.3335L17.8752 8.16667H20.4168C20.8335 8.16667 21.1877 8.3125 21.4793 8.60417C21.771 8.89583 21.9168 9.25 21.9168 9.66667V19.1667C21.9168 19.5833 21.771 19.9375 21.4793 20.2292C21.1877 20.5208 20.8335 20.6667 20.4168 20.6667H7.5835Z" fill="white"/>
<path d="M14.0085 16.6042C13.3835 16.6042 12.8627 16.3925 12.446 15.9692C12.0293 15.5453 11.821 15.0278 11.821 14.4167C11.821 13.8056 12.0293 13.2881 12.446 12.8642C12.8627 12.4408 13.3835 12.2292 14.0085 12.2292C14.6196 12.2292 15.1335 12.4408 15.5502 12.8642C15.9668 13.2881 16.1752 13.8056 16.1752 14.4167C16.1752 15.0278 15.9668 15.5453 15.5502 15.9692C15.1335 16.3925 14.6196 16.6042 14.0085 16.6042Z" fill="white"/>
</g>
</svg>
