<svg width="20" height="20" viewBox="0 0 20 20" fill="none" xmlns="http://www.w3.org/2000/svg">
<mask id="mask0_476_5323" style="mask-type:alpha" maskUnits="userSpaceOnUse" x="0" y="0" width="20" height="20">
<rect width="20" height="20" fill="#D9D9D9"/>
</mask>
<g mask="url(#mask0_476_5323)">
<path d="M6.04155 17.9166V10.3397C5.36527 10.1933 4.79556 9.8512 4.33242 9.31327C3.86927 8.77535 3.6377 8.13353 3.6377 7.38781V2.5H4.88767V7.38781H6.04155V2.5H7.29151V7.38781H8.44538V2.5H9.69536V7.38781C9.69536 8.13353 9.46379 8.77535 9.00063 9.31327C8.53749 9.8512 7.96779 10.1933 7.29151 10.3397V17.9166H6.04155ZM14.0543 17.9166V11.25H11.7787V6.45831C11.7787 5.41773 12.1128 4.51522 12.7811 3.75079C13.4494 2.98637 14.2904 2.57478 15.3043 2.51602V17.9166H14.0543Z" fill="white"/>
</g>
</svg>
