<svg width="20" height="20" viewBox="0 0 20 20" fill="none" xmlns="http://www.w3.org/2000/svg">
<mask id="mask0_476_5313" style="mask-type:alpha" maskUnits="userSpaceOnUse" x="0" y="0" width="20" height="20">
<rect width="20" height="20" fill="#D9D9D9"/>
</mask>
<g mask="url(#mask0_476_5313)">
<path d="M5.01939 14.4099C5.72773 13.8843 6.49936 13.4692 7.33429 13.1647C8.16922 12.8603 9.05784 12.708 10.0001 12.708C10.9424 12.708 11.8311 12.8603 12.666 13.1647C13.5009 13.4692 14.2726 13.8843 14.9809 14.4099C15.4991 13.8405 15.9096 13.1813 16.2125 12.4324C16.5154 11.6834 16.6668 10.8725 16.6668 9.99965C16.6668 8.15243 16.0175 6.57951 14.7189 5.2809C13.4203 3.98229 11.8474 3.33299 10.0001 3.33299C8.15292 3.33299 6.58 3.98229 5.28139 5.2809C3.98278 6.57951 3.33348 8.15243 3.33348 9.99965C3.33348 10.8725 3.48492 11.6834 3.78781 12.4324C4.0907 13.1813 4.50123 13.8405 5.01939 14.4099ZM10.0004 10.6246C9.23954 10.6246 8.59791 10.3635 8.07548 9.84124C7.55304 9.31896 7.29183 8.6774 7.29183 7.91657C7.29183 7.15572 7.55296 6.51408 8.07523 5.99165C8.5975 5.46922 9.23906 5.20801 9.99989 5.20801C10.7607 5.20801 11.4024 5.46914 11.9248 5.9914C12.4472 6.51368 12.7085 7.15524 12.7085 7.91607C12.7085 8.67692 12.4473 9.31856 11.9251 9.84099C11.4028 10.3634 10.7612 10.6246 10.0004 10.6246ZM10.0001 17.9163C8.90078 17.9163 7.86954 17.7096 6.90641 17.2961C5.94327 16.8826 5.1054 16.3196 4.39279 15.607C3.68019 14.8944 3.11716 14.0565 2.7037 13.0934C2.29023 12.1303 2.0835 11.099 2.0835 9.99965C2.0835 8.90029 2.29023 7.86905 2.7037 6.90592C3.11716 5.94279 3.68019 5.10491 4.39279 4.3923C5.1054 3.6797 5.94327 3.11667 6.90641 2.70322C7.86954 2.28974 8.90078 2.08301 10.0001 2.08301C11.0995 2.08301 12.1307 2.28974 13.0939 2.70322C14.057 3.11667 14.8949 3.6797 15.6075 4.3923C16.3201 5.10491 16.8831 5.94279 17.2966 6.90592C17.7101 7.86905 17.9168 8.90029 17.9168 9.99965C17.9168 11.099 17.7101 12.1303 17.2966 13.0934C16.8831 14.0565 16.3201 14.8944 15.6075 15.607C14.8949 16.3196 14.057 16.8826 13.0939 17.2961C12.1307 17.7096 11.0995 17.9163 10.0001 17.9163ZM10.0001 16.6663C10.7523 16.6663 11.4774 16.5453 12.1756 16.3033C12.8738 16.0614 13.4937 15.7229 14.0354 15.2881C13.4937 14.8693 12.8818 14.5429 12.1997 14.3089C11.5175 14.075 10.7843 13.958 10.0001 13.958C9.21595 13.958 8.48143 14.0736 7.7966 14.3049C7.11177 14.5362 6.50119 14.864 5.96487 15.2881C6.50654 15.7229 7.12647 16.0614 7.82466 16.3033C8.52284 16.5453 9.248 16.6663 10.0001 16.6663ZM10.0001 9.37467C10.4147 9.37467 10.7614 9.23525 11.0402 8.9564C11.3191 8.67754 11.4585 8.33085 11.4585 7.91632C11.4585 7.50179 11.3191 7.1551 11.0402 6.87624C10.7614 6.59739 10.4147 6.45797 10.0001 6.45797C9.58561 6.45797 9.23892 6.59739 8.96006 6.87624C8.68121 7.1551 8.54179 7.50179 8.54179 7.91632C8.54179 8.33085 8.68121 8.67754 8.96006 8.9564C9.23892 9.23525 9.58561 9.37467 10.0001 9.37467Z" fill="white"/>
</g>
</svg>
