<svg width="20" height="20" viewBox="0 0 20 20" fill="none" xmlns="http://www.w3.org/2000/svg">
<mask id="mask0_476_5331" style="mask-type:alpha" maskUnits="userSpaceOnUse" x="0" y="0" width="20" height="20">
<rect width="20" height="20" fill="#D9D9D9"/>
</mask>
<g mask="url(#mask0_476_5331)">
<path d="M9.12482 14.333L6.45496 11.6631L7.3588 10.7593L9.12482 12.5253L12.6408 9.00928L13.5447 9.91311L9.12482 14.333ZM4.42292 17.2624C4.00198 17.2624 3.64567 17.1166 3.354 16.8249C3.06234 16.5333 2.9165 16.177 2.9165 15.756V4.60224C2.9165 4.18129 3.06234 3.82499 3.354 3.53332C3.64567 3.24165 4.00198 3.09582 4.42292 3.09582H5.57677V1.33301H6.8588V3.09582H13.1729V1.33301H14.4229V3.09582H15.5767C15.9977 3.09582 16.354 3.24165 16.6456 3.53332C16.9373 3.82499 17.0831 4.18129 17.0831 4.60224V15.756C17.0831 16.177 16.9373 16.5333 16.6456 16.8249C16.354 17.1166 15.9977 17.2624 15.5767 17.2624H4.42292ZM4.42292 16.0125H15.5767C15.6408 16.0125 15.6996 15.9858 15.753 15.9323C15.8064 15.8789 15.8332 15.8201 15.8332 15.756V7.93557H4.16648V15.756C4.16648 15.8201 4.19319 15.8789 4.24661 15.9323C4.30004 15.9858 4.35881 16.0125 4.42292 16.0125ZM4.16648 6.68559H15.8332V4.60224C15.8332 4.53813 15.8064 4.47936 15.753 4.42592C15.6996 4.37251 15.6408 4.3458 15.5767 4.3458H4.42292C4.35881 4.3458 4.30004 4.37251 4.24661 4.42592C4.19319 4.47936 4.16648 4.53813 4.16648 4.60224V6.68559Z" fill="white"/>
</g>
</svg>
