<svg width="32" height="20" viewBox="0 0 32 20" fill="none" xmlns="http://www.w3.org/2000/svg">
<mask id="mask0_121_508" style="mask-type:alpha" maskUnits="userSpaceOnUse" x="0" y="0" width="20" height="20">
<rect width="20" height="20" fill="#D9D9D9"/>
</mask>
<g mask="url(#mask0_121_508)">
<path d="M4.41666 17.9166C3.99999 17.9166 3.64582 17.7708 3.35416 17.4791C3.06249 17.1875 2.91666 16.8333 2.91666 16.4166V5.24996C2.91666 4.83329 3.06249 4.47913 3.35416 4.18746C3.64582 3.89579 3.99999 3.74996 4.41666 3.74996H5.58332V1.97913H6.85416V3.74996H13.1667V1.97913H14.4167V3.74996H15.5833C16 3.74996 16.3542 3.89579 16.6458 4.18746C16.9375 4.47913 17.0833 4.83329 17.0833 5.24996V16.4166C17.0833 16.8333 16.9375 17.1875 16.6458 17.4791C16.3542 17.7708 16 17.9166 15.5833 17.9166H4.41666ZM4.41666 16.6666H15.5833C15.6389 16.6666 15.6944 16.6388 15.75 16.5833C15.8055 16.5277 15.8333 16.4722 15.8333 16.4166V8.58329H4.16666V16.4166C4.16666 16.4722 4.19443 16.5277 4.24999 16.5833C4.30555 16.6388 4.3611 16.6666 4.41666 16.6666ZM4.16666 7.33329H15.8333V5.24996C15.8333 5.1944 15.8055 5.13885 15.75 5.08329C15.6944 5.02774 15.6389 4.99996 15.5833 4.99996H4.41666C4.3611 4.99996 4.30555 5.02774 4.24999 5.08329C4.19443 5.13885 4.16666 5.1944 4.16666 5.24996V7.33329ZM9.99999 11.7291C9.79166 11.7291 9.61805 11.6561 9.47916 11.51C9.34027 11.3644 9.27082 11.1944 9.27082 11C9.27082 10.7916 9.34027 10.6144 9.47916 10.4683C9.61805 10.3227 9.79166 10.25 9.99999 10.25C10.2083 10.25 10.3819 10.3227 10.5208 10.4683C10.6597 10.6144 10.7292 10.7916 10.7292 11C10.7292 11.1944 10.6597 11.3644 10.5208 11.51C10.3819 11.6561 10.2083 11.7291 9.99999 11.7291ZM6.66666 11.7291C6.45832 11.7291 6.28471 11.6561 6.14582 11.51C6.00693 11.3644 5.93749 11.1944 5.93749 11C5.93749 10.7916 6.00693 10.6144 6.14582 10.4683C6.28471 10.3227 6.45832 10.25 6.66666 10.25C6.87499 10.25 7.0486 10.3227 7.18749 10.4683C7.32638 10.6144 7.39582 10.7916 7.39582 11C7.39582 11.1944 7.32638 11.3644 7.18749 11.51C7.0486 11.6561 6.87499 11.7291 6.66666 11.7291ZM13.3333 11.7291C13.125 11.7291 12.9514 11.6561 12.8125 11.51C12.6736 11.3644 12.6042 11.1944 12.6042 11C12.6042 10.7916 12.6736 10.6144 12.8125 10.4683C12.9514 10.3227 13.125 10.25 13.3333 10.25C13.5417 10.25 13.7153 10.3227 13.8542 10.4683C13.993 10.6144 14.0625 10.7916 14.0625 11C14.0625 11.1944 13.993 11.3644 13.8542 11.51C13.7153 11.6561 13.5417 11.7291 13.3333 11.7291ZM9.99999 15C9.79166 15 9.61805 14.9272 9.47916 14.7816C9.34027 14.6355 9.27082 14.4652 9.27082 14.2708C9.27082 14.0625 9.34027 13.8855 9.47916 13.74C9.61805 13.5938 9.79166 13.5208 9.99999 13.5208C10.2083 13.5208 10.3819 13.5938 10.5208 13.74C10.6597 13.8855 10.7292 14.0625 10.7292 14.2708C10.7292 14.4652 10.6597 14.6355 10.5208 14.7816C10.3819 14.9272 10.2083 15 9.99999 15ZM6.66666 15C6.45832 15 6.28471 14.9272 6.14582 14.7816C6.00693 14.6355 5.93749 14.4652 5.93749 14.2708C5.93749 14.0625 6.00693 13.8855 6.14582 13.74C6.28471 13.5938 6.45832 13.5208 6.66666 13.5208C6.87499 13.5208 7.0486 13.5938 7.18749 13.74C7.32638 13.8855 7.39582 14.0625 7.39582 14.2708C7.39582 14.4652 7.32638 14.6355 7.18749 14.7816C7.0486 14.9272 6.87499 15 6.66666 15ZM13.3333 15C13.125 15 12.9514 14.9272 12.8125 14.7816C12.6736 14.6355 12.6042 14.4652 12.6042 14.2708C12.6042 14.0625 12.6736 13.8855 12.8125 13.74C12.9514 13.5938 13.125 13.5208 13.3333 13.5208C13.5417 13.5208 13.7153 13.5938 13.8542 13.74C13.993 13.8855 14.0625 14.0625 14.0625 14.2708C14.0625 14.4652 13.993 14.6355 13.8542 14.7816C13.7153 14.9272 13.5417 15 13.3333 15Z" fill="#7686AD"/>
</g>
</svg>
