<svg width="20" height="20" viewBox="0 0 20 20" fill="none" xmlns="http://www.w3.org/2000/svg">
<mask id="mask0_476_5316" style="mask-type:alpha" maskUnits="userSpaceOnUse" x="0" y="0" width="20" height="20">
<rect width="20" height="20" fill="#D9D9D9"/>
</mask>
<g mask="url(#mask0_476_5316)">
<path d="M6.0415 13.9586H11.4581V12.7087H6.0415V13.9586ZM6.0415 10.6253H13.9581V9.37533H6.0415V10.6253ZM6.0415 7.29195H13.9581V6.04199H6.0415V7.29195ZM4.42292 17.0836C4.00198 17.0836 3.64567 16.9378 3.354 16.6461C3.06234 16.3545 2.9165 15.9981 2.9165 15.5772V4.42341C2.9165 4.00246 3.06234 3.64616 3.354 3.35449C3.64567 3.06283 4.00198 2.91699 4.42292 2.91699H15.5767C15.9977 2.91699 16.354 3.06283 16.6456 3.35449C16.9373 3.64616 17.0831 4.00246 17.0831 4.42341V15.5772C17.0831 15.9981 16.9373 16.3545 16.6456 16.6461C16.354 16.9378 15.9977 17.0836 15.5767 17.0836H4.42292ZM4.42292 15.8336H15.5767C15.6408 15.8336 15.6996 15.8069 15.753 15.7535C15.8064 15.7001 15.8332 15.6413 15.8332 15.5772V4.42341C15.8332 4.3593 15.8064 4.30053 15.753 4.2471C15.6996 4.19368 15.6408 4.16697 15.5767 4.16697H4.42292C4.35881 4.16697 4.30004 4.19368 4.24661 4.2471C4.19319 4.30053 4.16648 4.3593 4.16648 4.42341V15.5772C4.16648 15.6413 4.19319 15.7001 4.24661 15.7535C4.30004 15.8069 4.35881 15.8336 4.42292 15.8336Z" fill="white"/>
</g>
</svg>
