<svg width="20" height="20" viewBox="0 0 20 20" fill="none" xmlns="http://www.w3.org/2000/svg">
<mask id="mask0_476_5335" style="mask-type:alpha" maskUnits="userSpaceOnUse" x="0" y="0" width="20" height="20">
<rect width="20" height="20" fill="#D9D9D9"/>
</mask>
<g mask="url(#mask0_476_5335)">
<path d="M4.79155 17.7564C4.37062 17.7564 4.01432 17.6106 3.72266 17.3189C3.43099 17.0273 3.28516 16.671 3.28516 16.25V5.67318H4.53514V16.25C4.53514 16.3141 4.56184 16.3729 4.61526 16.4263C4.66868 16.4797 4.72744 16.5064 4.79155 16.5064H12.8684V17.7564H4.79155ZM7.7082 14.8398C7.28725 14.8398 6.93095 14.6939 6.63928 14.4023C6.34763 14.1106 6.2018 13.7543 6.2018 13.3334V3.84624C6.2018 3.42531 6.34763 3.06901 6.63928 2.77734C6.93095 2.48568 7.28725 2.33984 7.7082 2.33984H14.6953C15.1163 2.33984 15.4726 2.48568 15.7642 2.77734C16.0559 3.06901 16.2017 3.42531 16.2017 3.84624V13.3334C16.2017 13.7543 16.0559 14.1106 15.7642 14.4023C15.4726 14.6939 15.1163 14.8398 14.6953 14.8398H7.7082ZM7.7082 13.5898H14.6953C14.7594 13.5898 14.8182 13.5631 14.8716 13.5097C14.9251 13.4563 14.9518 13.3975 14.9518 13.3334V3.84624C14.9518 3.78213 14.9251 3.72336 14.8716 3.66995C14.8182 3.61653 14.7594 3.58982 14.6953 3.58982H7.7082C7.64409 3.58982 7.58532 3.61653 7.53191 3.66995C7.47848 3.72336 7.45176 3.78213 7.45176 3.84624V13.3334C7.45176 13.3975 7.47848 13.4563 7.53191 13.5097C7.58532 13.5631 7.64409 13.5898 7.7082 13.5898Z" fill="white"/>
</g>
</svg>
