<svg width="20" height="20" viewBox="0 0 20 20" fill="none" xmlns="http://www.w3.org/2000/svg">
<mask id="mask0_476_5319" style="mask-type:alpha" maskUnits="userSpaceOnUse" x="0" y="0" width="20" height="20">
<rect width="20" height="20" fill="#D9D9D9"/>
</mask>
<g mask="url(#mask0_476_5319)">
<path d="M2.7085 17.1478V5.89779H6.04183V2.56445H13.9585V9.23112H17.2918V17.1478H11.0418V13.8144H8.95845V17.1478H2.7085ZM3.95845 15.8978H6.04183V13.8144H3.95845V15.8978ZM3.95845 12.5645H6.04183V10.4811H3.95845V12.5645ZM3.95845 9.23112H6.04183V7.14777H3.95845V9.23112ZM7.29179 12.5645H9.37516V10.4811H7.29179V12.5645ZM7.29179 9.23112H9.37516V7.14777H7.29179V9.23112ZM7.29179 5.89779H9.37516V3.81443H7.29179V5.89779ZM10.6251 12.5645H12.7085V10.4811H10.6251V12.5645ZM10.6251 9.23112H12.7085V7.14777H10.6251V9.23112ZM10.6251 5.89779H12.7085V3.81443H10.6251V5.89779ZM13.9585 15.8978H16.0418V13.8144H13.9585V15.8978ZM13.9585 12.5645H16.0418V10.4811H13.9585V12.5645Z" fill="white"/>
</g>
</svg>
