<svg width="20" height="20" viewBox="0 0 20 20" fill="none" xmlns="http://www.w3.org/2000/svg">
<mask id="mask0_476_5351" style="mask-type:alpha" maskUnits="userSpaceOnUse" x="0" y="0" width="20" height="20">
<rect width="20" height="20" fill="#D9D9D9"/>
</mask>
<g mask="url(#mask0_476_5351)">
<path d="M3.58991 17.9163C3.16897 17.9163 2.81266 17.7705 2.521 17.4788C2.22933 17.1871 2.0835 16.8308 2.0835 16.4099V7.75609C2.0835 7.33515 2.22933 6.97884 2.521 6.68717C2.81266 6.39551 3.16897 6.24967 3.58991 6.24967H7.91683V3.33299C7.91683 2.98685 8.03862 2.69198 8.2822 2.44838C8.5258 2.2048 8.82067 2.08301 9.16681 2.08301H10.8335C11.1796 2.08301 11.4745 2.2048 11.7181 2.44838C11.9617 2.69198 12.0835 2.98685 12.0835 3.33299V6.24967H16.4104C16.8313 6.24967 17.1876 6.39551 17.4793 6.68717C17.771 6.97884 17.9168 7.33515 17.9168 7.75609V16.4099C17.9168 16.8308 17.771 17.1871 17.4793 17.4788C17.1876 17.7705 16.8313 17.9163 16.4104 17.9163H3.58991ZM3.58991 16.6663H16.4104C16.4852 16.6663 16.5466 16.6423 16.5947 16.5942C16.6428 16.5461 16.6668 16.4847 16.6668 16.4099V7.75609C16.6668 7.6813 16.6428 7.61986 16.5947 7.57178C16.5466 7.5237 16.4852 7.49965 16.4104 7.49965H12.0835C12.0835 7.87785 11.9563 8.18072 11.702 8.40828C11.4478 8.63585 11.1315 8.74963 10.7534 8.74963H9.24693C8.86874 8.74963 8.55251 8.63585 8.29825 8.40828C8.04397 8.18072 7.91683 7.87785 7.91683 7.49965H3.58991C3.51512 7.49965 3.45368 7.5237 3.4056 7.57178C3.35752 7.61986 3.33348 7.6813 3.33348 7.75609V16.4099C3.33348 16.4847 3.35752 16.5461 3.4056 16.5942C3.45368 16.6423 3.51512 16.6663 3.58991 16.6663ZM5.12835 14.7593H9.87193V14.5125C9.87193 14.2977 9.81263 14.1004 9.69404 13.9203C9.57545 13.7403 9.41146 13.6001 9.20206 13.4997C8.92963 13.38 8.65372 13.2903 8.37433 13.2304C8.09495 13.1706 7.80356 13.1407 7.50014 13.1407C7.19673 13.1407 6.90533 13.1706 6.62595 13.2304C6.34657 13.2903 6.07066 13.38 5.79823 13.4997C5.58882 13.6001 5.42483 13.7403 5.30625 13.9203C5.18765 14.1004 5.12835 14.2977 5.12835 14.5125V14.7593ZM11.6668 13.4932H15.0001V12.4997H11.6668V13.4932ZM7.50014 12.4997C7.80996 12.4997 8.07439 12.3901 8.29341 12.1711C8.51243 11.9521 8.62193 11.6877 8.62193 11.3779C8.62193 11.068 8.51243 10.8036 8.29341 10.5846C8.07439 10.3656 7.80996 10.2561 7.50014 10.2561C7.19032 10.2561 6.9259 10.3656 6.70687 10.5846C6.48786 10.8036 6.37835 11.068 6.37835 11.3779C6.37835 11.6877 6.48786 11.9521 6.70687 12.1711C6.9259 12.3901 7.19032 12.4997 7.50014 12.4997ZM11.6668 11.2497H15.0001V10.2561H11.6668V11.2497ZM9.16681 7.49965H10.8335V3.33299H9.16681V7.49965Z" fill="white"/>
</g>
</svg>
