<svg width="20" height="20" viewBox="0 0 20 20" fill="none" xmlns="http://www.w3.org/2000/svg">
<mask id="mask0_517_7394" style="mask-type:alpha" maskUnits="userSpaceOnUse" x="0" y="0" width="20" height="20">
<rect width="20" height="20" fill="#D9D9D9"/>
</mask>
<g mask="url(#mask0_517_7394)">
<path d="M14.9677 10.6254V9.3754H17.9805V10.6254H14.9677ZM15.9197 16.2343L13.5094 14.4266L14.269 13.4299L16.6793 15.2375L15.9197 16.2343ZM14.237 6.53883L13.4774 5.54206L15.8876 3.73438L16.6472 4.73115L14.237 6.53883ZM4.37481 15.401V12.1478H3.52544C3.10986 12.1478 2.75489 12.0006 2.46054 11.7063C2.16621 11.4119 2.01904 11.057 2.01904 10.6414V9.35935C2.01904 8.94377 2.16621 8.58881 2.46054 8.29446C2.75489 8.00013 3.10986 7.85296 3.52544 7.85296H6.74658L10.4805 5.62542V14.3753L6.74658 12.1478H5.62477V15.401H4.37481ZM11.6344 12.5997V7.40102C11.9613 7.69697 12.2247 8.06983 12.4245 8.5196C12.6243 8.9694 12.7241 9.46299 12.7241 10.0004C12.7241 10.5378 12.6243 11.0314 12.4245 11.4811C12.2247 11.9309 11.9613 12.3038 11.6344 12.5997Z" fill="white"/>
</g>
</svg>
