<svg width="20" height="20" viewBox="0 0 20 20" fill="none" xmlns="http://www.w3.org/2000/svg">
<mask id="mask0_822_9198" style="mask-type:alpha" maskUnits="userSpaceOnUse" x="0" y="0" width="20" height="20">
<rect width="20" height="20" fill="#D9D9D9"/>
</mask>
<g mask="url(#mask0_822_9198)">
<path d="M1.23535 17.1633V15.3108C1.23535 14.9005 1.34272 14.5234 1.55746 14.1793C1.77221 13.8353 2.07189 13.5672 2.4565 13.3749C3.1488 13.0244 3.92337 12.7349 4.78021 12.5063C5.63704 12.2777 6.53874 12.1633 7.48531 12.1633C8.43189 12.1633 9.3336 12.2777 10.1904 12.5063C11.0473 12.7349 11.8218 13.0244 12.5141 13.3749C12.8988 13.5672 13.1984 13.8353 13.4132 14.1793C13.6279 14.5234 13.7353 14.9005 13.7353 15.3108V17.1633H1.23535ZM2.48531 15.9133H12.4853V15.3108C12.4853 15.1206 12.4338 14.9576 12.3307 14.822C12.2276 14.6863 12.0975 14.5757 11.9404 14.4902C11.4298 14.2295 10.7821 13.9849 9.99733 13.7563C9.21261 13.5276 8.37527 13.4133 7.48531 13.4133C6.59537 13.4133 5.75803 13.5276 4.97331 13.7563C4.18859 13.9849 3.54089 14.2295 3.03021 14.4902C2.87315 14.5757 2.74307 14.6863 2.63998 14.822C2.53687 14.9576 2.48531 15.1206 2.48531 15.3108V15.9133ZM7.48531 10.8172C6.67016 10.8172 5.98026 10.5348 5.41562 9.97019C4.851 9.40557 4.56868 8.69964 4.56868 7.85242H4.37637C4.2674 7.85242 4.17873 7.81823 4.11035 7.74986C4.04198 7.68148 4.00779 7.59281 4.00779 7.48384C4.00779 7.37487 4.04198 7.28619 4.11035 7.21782C4.17873 7.14944 4.2674 7.11526 4.37637 7.11526H4.56868C4.57937 6.59176 4.70009 6.11874 4.93085 5.69621C5.16162 5.27367 5.4896 4.91123 5.91481 4.60888V5.40055C5.91481 5.50952 5.949 5.59819 6.01737 5.66657C6.08575 5.73494 6.17442 5.76913 6.28339 5.76913C6.39237 5.76913 6.48104 5.73494 6.54941 5.66657C6.61779 5.59819 6.65198 5.50952 6.65198 5.40055V4.29157C6.77164 4.2499 6.90225 4.21598 7.04381 4.1898C7.18537 4.16363 7.33253 4.15055 7.48531 4.15055C7.63809 4.15055 7.78526 4.16363 7.92683 4.1898C8.06839 4.21598 8.19899 4.2499 8.31864 4.29157V5.40055C8.31864 5.50952 8.35284 5.59819 8.42123 5.66657C8.4896 5.73494 8.57828 5.76913 8.68725 5.76913C8.79622 5.76913 8.88489 5.73494 8.95327 5.66657C9.02164 5.59819 9.05583 5.50952 9.05583 5.40055V4.60888C9.48637 4.91123 9.81569 5.27367 10.0438 5.69621C10.2719 6.11874 10.3913 6.59176 10.402 7.11526H10.5943C10.7032 7.11526 10.7919 7.14944 10.8603 7.21782C10.9287 7.28619 10.9629 7.37487 10.9629 7.48384C10.9629 7.59281 10.9287 7.68148 10.8603 7.74986C10.7919 7.81823 10.7032 7.85242 10.5943 7.85242H10.402C10.402 8.69964 10.1196 9.40557 9.55502 9.97019C8.99038 10.5348 8.30048 10.8172 7.48531 10.8172ZM7.48531 9.56717C7.95434 9.56717 8.34937 9.40665 8.67041 9.08561C8.99146 8.76455 9.15198 8.36952 9.15198 7.90051H5.81864C5.81864 8.36952 5.97917 8.76455 6.30023 9.08561C6.62127 9.40665 7.0163 9.56717 7.48531 9.56717ZM13.7514 12.4357L13.6584 11.8268C13.5644 11.799 13.4698 11.7611 13.3747 11.713C13.2797 11.6649 13.1947 11.6035 13.1199 11.5287L12.5526 11.753L12.184 11.0992L12.6584 10.7146C12.6477 10.6622 12.6424 10.6126 12.6424 10.5655V10.2715C12.6424 10.2271 12.6477 10.1761 12.6584 10.1184L12.184 9.73382L12.5526 9.07996L13.1199 9.30434C13.1862 9.23809 13.269 9.17879 13.3683 9.12644C13.4677 9.0741 13.5644 9.03403 13.6584 9.00625L13.7514 8.39728H14.4885L14.5815 9.00625C14.6755 9.03403 14.7722 9.0741 14.8715 9.12644C14.9709 9.17879 15.0537 9.23809 15.1199 9.30434L15.6872 9.07996L16.0558 9.73382L15.5815 10.1184C15.5921 10.1761 15.5975 10.2271 15.5975 10.2715V10.5655C15.5975 10.6126 15.5921 10.6622 15.5815 10.7146L16.0558 11.0992L15.6872 11.753L15.1199 11.5287C15.0451 11.6035 14.9602 11.6649 14.8651 11.713C14.77 11.7611 14.6755 11.799 14.5815 11.8268L14.4885 12.4357H13.7514ZM14.1199 11.1056C14.308 11.1056 14.4698 11.0378 14.6055 10.9021C14.7412 10.7664 14.809 10.6045 14.809 10.4165C14.809 10.2285 14.7412 10.0666 14.6055 9.93092C14.4698 9.79524 14.308 9.7274 14.1199 9.7274C13.9319 9.7274 13.77 9.79524 13.6344 9.93092C13.4987 10.0666 13.4308 10.2285 13.4308 10.4165C13.4308 10.6045 13.4987 10.7664 13.6344 10.9021C13.77 11.0378 13.9319 11.1056 14.1199 11.1056ZM15.7161 8.09278L15.5975 7.32996C15.4565 7.29363 15.3165 7.2362 15.1776 7.15767C15.0387 7.07914 14.9223 6.98486 14.8283 6.87482L14.0815 7.15046L13.6103 6.34278L14.2385 5.82996C14.2108 5.75519 14.1942 5.68628 14.1889 5.62323C14.1835 5.56021 14.1809 5.4913 14.1809 5.41651C14.1809 5.34171 14.1835 5.2728 14.1889 5.20978C14.1942 5.14673 14.2108 5.07782 14.2385 5.00305L13.6103 4.49023L14.0815 3.68255L14.8283 3.95819C14.9223 3.84815 15.0387 3.75387 15.1776 3.67534C15.3165 3.59681 15.4565 3.53938 15.5975 3.50305L15.7161 2.74023H16.6584L16.777 3.50305C16.918 3.53938 17.058 3.59681 17.1969 3.67534C17.3357 3.75387 17.4522 3.84815 17.5462 3.95819L18.293 3.68255L18.7641 4.49023L18.1359 5.00305C18.1637 5.07782 18.1803 5.14673 18.1856 5.20978C18.191 5.2728 18.1936 5.34171 18.1936 5.41651C18.1936 5.4913 18.191 5.56021 18.1856 5.62323C18.1803 5.68628 18.1637 5.75519 18.1359 5.82996L18.7641 6.34278L18.293 7.15046L17.5462 6.87482C17.4522 6.98486 17.3357 7.07914 17.1969 7.15767C17.058 7.2362 16.918 7.29363 16.777 7.32996L16.6584 8.09278H15.7161ZM16.1872 6.50626C16.4949 6.50626 16.7535 6.40155 16.9629 6.19215C17.1723 5.98275 17.277 5.7242 17.277 5.41651C17.277 5.10881 17.1723 4.85026 16.9629 4.64086C16.7535 4.43146 16.4949 4.32675 16.1872 4.32675C15.8796 4.32675 15.621 4.43146 15.4116 4.64086C15.2022 4.85026 15.0975 5.10881 15.0975 5.41651C15.0975 5.7242 15.2022 5.98275 15.4116 6.19215C15.621 6.40155 15.8796 6.50626 16.1872 6.50626Z" fill="#F15A22"/>
</g>
</svg>
