<svg width="16" height="16" viewBox="0 0 16 16" fill="none" xmlns="http://www.w3.org/2000/svg">
<mask id="mask0_476_6614" style="mask-type:alpha" maskUnits="userSpaceOnUse" x="0" y="0" width="16" height="16">
<rect width="16" height="16" fill="#D9D9D9"/>
</mask>
<g mask="url(#mask0_476_6614)">
<path d="M7.99984 14.3337C7.13317 14.3337 6.31361 14.167 5.54117 13.8337C4.76917 13.5003 4.09695 13.0474 3.5245 12.475C2.9525 11.903 2.49984 11.231 2.1665 10.459C1.83317 9.68655 1.6665 8.86699 1.6665 8.00033C1.6665 7.12255 1.83317 6.30033 2.1665 5.53366C2.49984 4.76699 2.9525 4.09744 3.5245 3.52499C4.09695 2.95299 4.76917 2.50033 5.54117 2.16699C6.31361 1.83366 7.13317 1.66699 7.99984 1.66699C8.87761 1.66699 9.69984 1.83366 10.4665 2.16699C11.2332 2.50033 11.9025 2.95299 12.4745 3.52499C13.0469 4.09744 13.4998 4.76699 13.8332 5.53366C14.1665 6.30033 14.3332 7.12255 14.3332 8.00033C14.3332 8.86699 14.1665 9.68655 13.8332 10.459C13.4998 11.231 13.0469 11.903 12.4745 12.475C11.9025 13.0474 11.2332 13.5003 10.4665 13.8337C9.69984 14.167 8.87761 14.3337 7.99984 14.3337ZM7.99984 13.317C8.34428 12.8725 8.6305 12.4199 8.8585 11.959C9.08606 11.4977 9.27761 10.9948 9.43317 10.4503H6.5665C6.72206 11.0059 6.91384 11.5141 7.14184 11.975C7.36939 12.4363 7.65539 12.8837 7.99984 13.317ZM6.7165 13.1337C6.46095 12.767 6.2305 12.3503 6.02517 11.8837C5.81939 11.417 5.66095 10.9392 5.54984 10.4503H3.28317C3.63873 11.1392 4.11095 11.7199 4.69984 12.1923C5.28873 12.6643 5.96095 12.9781 6.7165 13.1337ZM9.28317 13.1337C10.0387 12.9781 10.7109 12.6643 11.2998 12.1923C11.8887 11.7199 12.3609 11.1392 12.7165 10.4503H10.4498C10.3165 10.9392 10.1498 11.4197 9.94984 11.8917C9.74984 12.3641 9.52761 12.7781 9.28317 13.1337ZM2.8665 9.45033H5.34984C5.30539 9.20588 5.27206 8.9641 5.24984 8.72499C5.22761 8.48633 5.2165 8.24477 5.2165 8.00033C5.2165 7.75588 5.22761 7.5141 5.24984 7.27499C5.27206 7.03632 5.30539 6.79477 5.34984 6.55032H2.8665C2.79984 6.77255 2.74984 7.00588 2.7165 7.25033C2.68317 7.49477 2.6665 7.74477 2.6665 8.00033C2.6665 8.25588 2.68317 8.50588 2.7165 8.75033C2.74984 8.99477 2.79984 9.2281 2.8665 9.45033ZM6.34984 9.45033H9.64984C9.69428 9.20588 9.72761 8.96699 9.74984 8.73366C9.77206 8.50033 9.78317 8.25588 9.78317 8.00033C9.78317 7.74477 9.77206 7.50032 9.74984 7.26699C9.72761 7.03366 9.69428 6.79477 9.64984 6.55032H6.34984C6.30539 6.79477 6.27206 7.03366 6.24984 7.26699C6.22761 7.50032 6.2165 7.74477 6.2165 8.00033C6.2165 8.25588 6.22761 8.50033 6.24984 8.73366C6.27206 8.96699 6.30539 9.20588 6.34984 9.45033ZM10.6498 9.45033H13.1332C13.1998 9.2281 13.2498 8.99477 13.2832 8.75033C13.3165 8.50588 13.3332 8.25588 13.3332 8.00033C13.3332 7.74477 13.3165 7.49477 13.2832 7.25033C13.2498 7.00588 13.1998 6.77255 13.1332 6.55032H10.6498C10.6943 6.79477 10.7276 7.03632 10.7498 7.27499C10.7721 7.5141 10.7832 7.75588 10.7832 8.00033C10.7832 8.24477 10.7721 8.48633 10.7498 8.72499C10.7276 8.9641 10.6943 9.20588 10.6498 9.45033ZM10.4498 5.55033H12.7165C12.3609 4.85033 11.8916 4.26966 11.3085 3.80833C10.7249 3.34744 10.0498 3.0281 9.28317 2.85033C9.53873 3.23921 9.7665 3.6641 9.9665 4.12499C10.1665 4.58633 10.3276 5.06144 10.4498 5.55033ZM6.5665 5.55033H9.43317C9.27761 4.99477 9.0805 4.48077 8.84184 4.00833C8.60273 3.53633 8.32206 3.09477 7.99984 2.68366C7.67761 3.09477 7.39717 3.53633 7.1585 4.00833C6.91939 4.48077 6.72206 4.99477 6.5665 5.55033ZM3.28317 5.55033H5.54984C5.67206 5.06144 5.83317 4.58633 6.03317 4.12499C6.23317 3.6641 6.46095 3.23921 6.7165 2.85033C5.93873 3.0281 5.26095 3.34744 4.68317 3.80833C4.10539 4.26966 3.63873 4.85033 3.28317 5.55033Z" fill="white"/>
</g>
</svg>
