<svg width="32" height="20" viewBox="0 0 32 20" fill="none" xmlns="http://www.w3.org/2000/svg">
<mask id="mask0_121_295" style="mask-type:alpha" maskUnits="userSpaceOnUse" x="0" y="0" width="20" height="20">
<rect width="20" height="20" fill="#D9D9D9"/>
</mask>
<g mask="url(#mask0_121_295)">
<path d="M4.41663 17.9166C3.99996 17.9166 3.64579 17.7708 3.35413 17.4791C3.06246 17.1875 2.91663 16.8333 2.91663 16.4166V5.24996C2.91663 4.83329 3.06246 4.47913 3.35413 4.18746C3.64579 3.89579 3.99996 3.74996 4.41663 3.74996H5.58329V1.97913H6.85413V3.74996H13.1666V1.97913H14.4166V3.74996H15.5833C16 3.74996 16.3541 3.89579 16.6458 4.18746C16.9375 4.47913 17.0833 4.83329 17.0833 5.24996V16.4166C17.0833 16.8333 16.9375 17.1875 16.6458 17.4791C16.3541 17.7708 16 17.9166 15.5833 17.9166H4.41663ZM4.41663 16.6666H15.5833C15.6388 16.6666 15.6944 16.6388 15.75 16.5833C15.8055 16.5277 15.8333 16.4722 15.8333 16.4166V8.58329H4.16663V16.4166C4.16663 16.4722 4.1944 16.5277 4.24996 16.5833C4.30551 16.6388 4.36107 16.6666 4.41663 16.6666ZM4.16663 7.33329H15.8333V5.24996C15.8333 5.1944 15.8055 5.13885 15.75 5.08329C15.6944 5.02774 15.6388 4.99996 15.5833 4.99996H4.41663C4.36107 4.99996 4.30551 5.02774 4.24996 5.08329C4.1944 5.13885 4.16663 5.1944 4.16663 5.24996V7.33329ZM9.99996 11.7291C9.79163 11.7291 9.61802 11.6561 9.47913 11.51C9.34024 11.3644 9.27079 11.1944 9.27079 11C9.27079 10.7916 9.34024 10.6144 9.47913 10.4683C9.61802 10.3227 9.79163 10.25 9.99996 10.25C10.2083 10.25 10.3819 10.3227 10.5208 10.4683C10.6597 10.6144 10.7291 10.7916 10.7291 11C10.7291 11.1944 10.6597 11.3644 10.5208 11.51C10.3819 11.6561 10.2083 11.7291 9.99996 11.7291ZM6.66663 11.7291C6.45829 11.7291 6.28468 11.6561 6.14579 11.51C6.0069 11.3644 5.93746 11.1944 5.93746 11C5.93746 10.7916 6.0069 10.6144 6.14579 10.4683C6.28468 10.3227 6.45829 10.25 6.66663 10.25C6.87496 10.25 7.04857 10.3227 7.18746 10.4683C7.32635 10.6144 7.39579 10.7916 7.39579 11C7.39579 11.1944 7.32635 11.3644 7.18746 11.51C7.04857 11.6561 6.87496 11.7291 6.66663 11.7291ZM13.3333 11.7291C13.125 11.7291 12.9513 11.6561 12.8125 11.51C12.6736 11.3644 12.6041 11.1944 12.6041 11C12.6041 10.7916 12.6736 10.6144 12.8125 10.4683C12.9513 10.3227 13.125 10.25 13.3333 10.25C13.5416 10.25 13.7152 10.3227 13.8541 10.4683C13.993 10.6144 14.0625 10.7916 14.0625 11C14.0625 11.1944 13.993 11.3644 13.8541 11.51C13.7152 11.6561 13.5416 11.7291 13.3333 11.7291ZM9.99996 15C9.79163 15 9.61802 14.9272 9.47913 14.7816C9.34024 14.6355 9.27079 14.4652 9.27079 14.2708C9.27079 14.0625 9.34024 13.8855 9.47913 13.74C9.61802 13.5938 9.79163 13.5208 9.99996 13.5208C10.2083 13.5208 10.3819 13.5938 10.5208 13.74C10.6597 13.8855 10.7291 14.0625 10.7291 14.2708C10.7291 14.4652 10.6597 14.6355 10.5208 14.7816C10.3819 14.9272 10.2083 15 9.99996 15ZM6.66663 15C6.45829 15 6.28468 14.9272 6.14579 14.7816C6.0069 14.6355 5.93746 14.4652 5.93746 14.2708C5.93746 14.0625 6.0069 13.8855 6.14579 13.74C6.28468 13.5938 6.45829 13.5208 6.66663 13.5208C6.87496 13.5208 7.04857 13.5938 7.18746 13.74C7.32635 13.8855 7.39579 14.0625 7.39579 14.2708C7.39579 14.4652 7.32635 14.6355 7.18746 14.7816C7.04857 14.9272 6.87496 15 6.66663 15ZM13.3333 15C13.125 15 12.9513 14.9272 12.8125 14.7816C12.6736 14.6355 12.6041 14.4652 12.6041 14.2708C12.6041 14.0625 12.6736 13.8855 12.8125 13.74C12.9513 13.5938 13.125 13.5208 13.3333 13.5208C13.5416 13.5208 13.7152 13.5938 13.8541 13.74C13.993 13.8855 14.0625 14.0625 14.0625 14.2708C14.0625 14.4652 13.993 14.6355 13.8541 14.7816C13.7152 14.9272 13.5416 15 13.3333 15Z" fill="#7686AD"/>
</g>
</svg>
