<svg width="48" height="48" viewBox="0 0 48 48" fill="none" xmlns="http://www.w3.org/2000/svg">
<mask id="mask0_604_5645" style="mask-type:alpha" maskUnits="userSpaceOnUse" x="0" y="0" width="48" height="48">
<rect width="48" height="48" fill="#D9D9D9"/>
</mask>
<g mask="url(#mask0_604_5645)">
<path d="M41.3455 46.0615L1.70703 6.423L3.81468 4.31535L43.4531 43.9538L41.3455 46.0615ZM10.9994 13.6384L13.9993 16.6384V36.5H33.5263L36.9993 39.9729V41.3845C36.9993 42.3819 36.6461 43.2339 35.9396 43.9403C35.2332 44.6467 34.3813 44.9999 33.3839 44.9999H14.6148C13.6173 44.9999 12.7654 44.6467 12.059 43.9403C11.3526 43.2339 10.9994 42.3819 10.9994 41.3845V13.6384ZM13.9993 39.4999V41.3845C13.9993 41.564 14.057 41.7115 14.1724 41.8269C14.2878 41.9422 14.4353 42 14.6148 42H33.3839C33.5634 42 33.7108 41.9422 33.8262 41.8269C33.9416 41.7115 33.9993 41.564 33.9993 41.3845V39.4999H13.9993ZM36.9993 6.6154V31.8384L33.9993 28.8385V11.4999H16.63L11.184 6.0039V5.7539C11.3891 4.96157 11.8039 4.3045 12.4282 3.7827C13.0526 3.2609 13.7814 3 14.6148 3H33.3839C34.3941 3 35.2493 3.35 35.9493 4.05C36.6493 4.75 36.9993 5.60513 36.9993 6.6154ZM13.9993 8.5H33.9993V6.6154C33.9993 6.4359 33.9416 6.28845 33.8262 6.17305C33.7108 6.05765 33.5634 5.99995 33.3839 5.99995H14.6148C14.4353 5.99995 14.2878 6.05765 14.1724 6.17305C14.057 6.28845 13.9993 6.4359 13.9993 6.6154V8.5Z" fill="#F15A22"/>
</g>
</svg>
