<svg width="20" height="20" viewBox="0 0 20 20" fill="none" xmlns="http://www.w3.org/2000/svg">
<mask id="mask0_476_5310" style="mask-type:alpha" maskUnits="userSpaceOnUse" x="0" y="0" width="20" height="20">
<rect width="20" height="20" fill="#D9D9D9"/>
</mask>
<g mask="url(#mask0_476_5310)">
<path d="M9.99982 18.5733L7.67611 16.2496H4.42292C4.00198 16.2496 3.64567 16.1038 3.354 15.8121C3.06234 15.5205 2.9165 15.1642 2.9165 14.7432V3.58942C2.9165 3.16848 3.06234 2.81217 3.354 2.52051C3.64567 2.22884 4.00198 2.08301 4.42292 2.08301H15.5767C15.9977 2.08301 16.354 2.22884 16.6456 2.52051C16.9373 2.81217 17.0831 3.16848 17.0831 3.58942V14.7432C17.0831 15.1642 16.9373 15.5205 16.6456 15.8121C16.354 16.1038 15.9977 16.2496 15.5767 16.2496H12.3235L9.99982 18.5733ZM4.16648 14.2016C4.91648 13.4655 5.78801 12.8856 6.78107 12.462C7.77412 12.0384 8.84704 11.8266 9.99982 11.8266C11.1526 11.8266 12.2255 12.0384 13.2186 12.462C14.2116 12.8856 15.0832 13.4655 15.8332 14.2016V3.58942C15.8332 3.52531 15.8064 3.46654 15.753 3.41311C15.6996 3.3597 15.6408 3.33299 15.5767 3.33299H4.42292C4.35881 3.33299 4.30004 3.3597 4.24661 3.41311C4.19319 3.46654 4.16648 3.52531 4.16648 3.58942V14.2016ZM9.99982 10.0317C10.752 10.0317 11.3914 9.76836 11.9181 9.24165C12.4448 8.71495 12.7081 8.07552 12.7081 7.32338C12.7081 6.57126 12.4448 5.93184 11.9181 5.40513C11.3914 4.87842 10.752 4.61507 9.99982 4.61507C9.24768 4.61507 8.60826 4.87842 8.08157 5.40513C7.55486 5.93184 7.2915 6.57126 7.2915 7.32338C7.2915 8.07552 7.55486 8.71495 8.08157 9.24165C8.60826 9.76836 9.24768 10.0317 9.99982 10.0317ZM9.99982 8.78174C9.59918 8.78174 9.25596 8.63884 8.97015 8.35305C8.68436 8.06726 8.54146 7.72404 8.54146 7.32338C8.54146 6.92274 8.68436 6.57953 8.97015 6.29374C9.25596 6.00795 9.59918 5.86505 9.99982 5.86505C10.4005 5.86505 10.7437 6.00795 11.0295 6.29374C11.3153 6.57953 11.4582 6.92274 11.4582 7.32338C11.4582 7.72404 11.3153 8.06726 11.0295 8.35305C10.7437 8.63884 10.4005 8.78174 9.99982 8.78174ZM9.99982 16.817L11.8171 14.9997H14.6313V14.8234C13.9731 14.2358 13.2512 13.7977 12.4654 13.5093C11.6796 13.2208 10.8577 13.0765 9.99982 13.0765C9.15259 13.0765 8.33475 13.2195 7.54628 13.5053C6.7578 13.791 6.03184 14.2251 5.36838 14.8073V14.9997H8.1825L9.99982 16.817Z" fill="#F15A22"/>
</g>
</svg>
