<svg width="154" height="36" viewBox="0 0 154 36" fill="none" xmlns="http://www.w3.org/2000/svg">
<g clip-path="url(#clip0_603_5609)">
<path d="M8.26398 14.7096C7.36802 13.8856 6.31131 13.2558 5.16025 12.8598C4.5412 12.6408 3.51368 12.3223 2.64066 12.3223C1.89145 12.3223 1.2523 12.5593 1.08827 13.3096C0.770812 14.735 0.922135 26.9869 1.0343 28.407C1.11261 29.4504 1.55283 30.0557 2.77294 30.0335C11.2915 29.897 13.5286 19.5678 8.26398 14.7096Z" fill="url(#paint0_linear_603_5609)"/>
<path d="M18.0259 4.8674C17.2099 4.12297 16.2507 3.55263 15.2069 3.19121C14.6407 2.9912 13.7116 2.7002 12.918 2.7002C12.2344 2.7002 11.6534 2.92242 11.5042 3.60179C11.2238 4.89069 11.3571 16.0177 11.4566 17.3077C11.5285 18.2495 11.9254 18.8029 13.0312 18.7839C20.772 18.6558 22.809 9.28013 18.0259 4.8674Z" fill="url(#paint1_linear_603_5609)"/>
<path d="M21.4429 15.2101C20.4192 14.2733 19.2146 13.5559 17.9032 13.1021C17.1868 12.8482 16.0165 12.4873 15.0281 12.4873C14.1656 12.4873 13.4323 12.7593 13.2461 13.6132C12.8873 15.2386 13.0598 29.2154 13.1847 30.8366C13.2831 32.0303 13.772 32.7171 15.1657 32.6959C24.8895 32.5393 27.4462 20.7551 21.4429 15.2101Z" fill="url(#paint2_linear_603_5609)"/>
<path d="M33.2016 12.5986H28.2629V26.0971H33.2016C37.2789 26.0971 40.2355 23.2707 40.2355 19.3743C40.2355 15.3203 37.408 12.6018 33.2016 12.6018M37.8514 19.3595C37.8514 22.1966 35.9677 24.0304 33.137 24.0304H30.6397V14.6717H33.1296C36.0461 14.6717 37.8471 16.4325 37.8471 19.3595" fill="#007F41"/>
<path d="M49.8569 19.1119C50.7362 18.5151 51.3151 17.3129 51.3151 16.0643C51.3151 13.8918 49.5764 12.5976 46.659 12.5986H41.3013V26.0971H46.7532C50.0452 26.0971 52.0146 24.6558 52.0124 22.2431C52.0124 20.7987 51.3077 19.7712 49.8548 19.1119M45.7722 18.1383C45.3309 18.2442 45.0685 18.5087 44.9997 18.9172C44.9454 19.2251 45.0134 19.5421 45.1891 19.8008C45.2533 19.8916 45.3347 19.969 45.4288 20.0284C45.5228 20.0877 45.6277 20.128 45.7373 20.1468C46.0713 20.1933 46.4076 20.2209 46.7447 20.2294C47.8092 20.277 48.9352 20.3278 49.4357 21.2675C49.5803 21.5522 49.6461 21.8704 49.6263 22.1891C49.6066 22.5078 49.5021 22.8154 49.3235 23.0802C48.9479 23.6251 48.2103 23.9521 47.1288 24.0188C46.9912 24.0188 46.8473 24.0273 46.6949 24.0273H43.6875V14.6664H46.4135C48.2124 14.6664 48.9352 15.1807 48.9352 16.278C48.9352 16.8801 48.7055 17.4325 48.2505 17.7595C47.8431 18.0558 47.2505 18.0653 46.6748 18.0706C46.3732 18.0661 46.0718 18.0891 45.7743 18.1394" fill="#007F41"/>
<path d="M67.8886 16.2333H67.7139C67.6072 16.24 67.5002 16.2232 67.4007 16.1838C67.3012 16.1445 67.2116 16.0837 67.1383 16.0058C67.0655 15.9434 67.0074 15.8657 66.968 15.7782C66.9287 15.6908 66.9092 15.5958 66.9108 15.4999C65.9161 14.7655 64.6938 14.3987 63.2441 14.3994C61.952 14.3994 60.8515 14.8883 59.9435 15.8311C59.0356 16.8089 58.5985 17.9962 58.5985 19.3941C58.5985 20.792 59.0356 21.9603 59.9435 22.9032C60.3669 23.3577 60.8809 23.7185 61.4523 23.9622C62.0237 24.2059 62.6399 24.3271 63.261 24.318C63.9442 24.3276 64.622 24.1968 65.2526 23.9338C65.8462 23.6894 66.2822 23.4047 66.5224 23.1307V20.5285H63.2049C63.0899 20.5276 62.9762 20.5037 62.8705 20.4582C62.7649 20.4127 62.6694 20.3466 62.5896 20.2637C62.5099 20.1808 62.4475 20.0828 62.4061 19.9754C62.3648 19.8681 62.3453 19.7536 62.3488 19.6386C62.3439 19.524 62.3625 19.4096 62.4035 19.3025C62.4446 19.1954 62.5072 19.0979 62.5874 19.016C62.6677 18.934 62.7639 18.8694 62.8701 18.8262C62.9763 18.7829 63.0903 18.7619 63.2049 18.7645H68.4431V23.7772C67.8896 24.5004 67.1613 25.0711 66.3266 25.4354C65.3684 25.8899 64.3183 26.1174 63.2578 26.1C62.3867 26.1141 61.522 25.9494 60.7171 25.6159C59.9122 25.2825 59.1843 24.7874 58.5785 24.1614C57.2684 22.8862 56.6218 21.2968 56.6218 19.3941C56.6218 17.4724 57.2684 15.8491 58.5785 14.5391C59.1843 13.913 59.9122 13.418 60.7171 13.0845C61.522 12.7511 62.3867 12.5863 63.2578 12.6004C64.8293 12.6004 66.1224 12.9327 67.1351 13.5782C67.2409 13.3666 67.4314 13.247 67.7288 13.247H67.8886V16.2333Z" fill="#007F41"/>
<path d="M72.8082 25.1349C72.8094 25.2629 72.7848 25.3897 72.7359 25.508C72.6869 25.6262 72.6147 25.7333 72.5234 25.823C72.4322 25.9127 72.3238 25.9831 72.2047 26.0299C72.0856 26.0768 71.9583 26.0992 71.8304 26.0958C71.7007 26.1017 71.5713 26.0798 71.4508 26.0314C71.3303 25.983 71.2216 25.9094 71.132 25.8153C71.0385 25.7293 70.965 25.6238 70.9167 25.5062C70.8684 25.3886 70.8466 25.2619 70.8527 25.1349V12.7888C70.5204 12.683 70.3638 12.4396 70.3638 12.0724V11.8809H72.8082V25.1349Z" fill="#007F41"/>
<path d="M79.5489 26.0964C78.9123 26.1041 78.2808 25.9826 77.6924 25.7395C77.1041 25.4963 76.5711 25.1364 76.1256 24.6816C75.1478 23.7391 74.6589 22.569 74.6589 21.1715C74.6589 19.7387 75.1478 18.551 76.1256 17.6085C76.5711 17.1537 77.1041 16.7938 77.6924 16.5506C78.2808 16.3075 78.9123 16.186 79.5489 16.1937C80.8759 16.1937 82.0283 16.6653 83.0061 17.6085C83.95 18.5514 84.4389 19.7387 84.4389 21.1715C84.4389 22.5683 83.95 23.7387 83.0061 24.6816C82.0283 25.6248 80.8759 26.0964 79.5489 26.0964ZM79.5489 24.2974C79.9431 24.3073 80.3348 24.2312 80.6966 24.0744C81.0585 23.9176 81.3818 23.6839 81.6442 23.3895C82.1925 22.7813 82.4864 21.9859 82.4653 21.1673C82.4857 20.3396 82.1924 19.5348 81.6442 18.9143C81.3794 18.623 81.0556 18.3913 80.6943 18.2347C80.333 18.0782 79.9426 18.0004 79.5489 18.0064C79.1577 18.0005 78.7698 18.0784 78.4113 18.235C78.0528 18.3917 77.732 18.6233 77.4706 18.9143C76.9119 19.5253 76.6325 20.2763 76.6325 21.1673C76.6325 22.0403 76.9119 22.7906 77.4886 23.3895C77.7451 23.6819 78.0624 23.9147 78.4183 24.0715C78.7742 24.2283 79.1601 24.3054 79.5489 24.2974Z" fill="#007F41"/>
<path d="M91.2148 16.1931C92.5072 16.1931 93.5898 16.6823 94.4624 17.6608C95.3 18.6369 95.7533 19.8847 95.7376 21.1709C95.7376 22.5328 95.3005 23.6852 94.4624 24.646C94.0618 25.1125 93.5628 25.4845 93.0012 25.7352C92.4397 25.9858 91.8296 26.109 91.2148 26.0958C90.0264 26.0958 89.0137 25.5889 88.1577 24.5582V25.1698C88.1628 25.2925 88.1422 25.415 88.0971 25.5292C88.0521 25.6435 87.9837 25.7471 87.8963 25.8333C87.7115 26.0054 87.4673 26.0995 87.2148 26.0958C87.0922 26.0997 86.97 26.0785 86.856 26.0334C86.7419 25.9882 86.6383 25.9201 86.5516 25.8333C86.4649 25.7465 86.3969 25.6429 86.3519 25.5287C86.3069 25.4146 86.2858 25.2924 86.2899 25.1698V12.7888C85.9576 12.683 85.801 12.4396 85.801 12.0724V11.8809H88.2455V17.6608C89.1016 16.683 90.0963 16.1931 91.2148 16.1931ZM88.2635 21.7465C88.3075 22.387 88.5727 22.9922 89.0137 23.4587C89.2665 23.7323 89.5749 23.9487 89.9183 24.0932C90.2616 24.2378 90.6318 24.3072 91.0042 24.2968C91.8783 24.2968 92.5587 23.9994 93.0476 23.3889C93.5016 22.7942 93.746 22.0439 93.746 21.1666C93.746 20.2756 93.5016 19.5243 93.0476 18.9137C92.5587 18.32 91.8836 18.0058 91.0042 18.0058C90.6336 17.9962 90.2651 18.0643 89.9223 18.2055C89.5795 18.3467 89.2701 18.558 89.0137 18.8259C88.5749 19.3077 88.3107 19.923 88.2635 20.573C88.2102 20.9623 88.2102 21.3572 88.2635 21.7465Z" fill="#007F41"/>
<path d="M98.9501 18.29C98.8168 18.3442 98.6723 18.3652 98.5291 18.3512C98.3859 18.3372 98.2482 18.2886 98.1279 18.2096C98.0076 18.1305 97.9084 18.0235 97.8387 17.8976C97.769 17.7716 97.731 17.6307 97.7279 17.4868C97.7262 17.3697 97.7485 17.2536 97.7935 17.1455C97.8384 17.0373 97.905 16.9396 97.9892 16.8582C98.0761 16.7769 98.1768 16.7117 98.2866 16.6656C99.1527 16.3452 100.07 16.1853 100.993 16.1937H101.045C102.565 16.1937 103.752 16.5111 104.59 17.1027C105.411 17.7133 105.831 18.69 105.831 20.0191V25.1874C105.831 25.3085 105.806 25.4285 105.758 25.5397C105.71 25.6509 105.64 25.7511 105.551 25.8339C105.371 26.0026 105.134 26.0964 104.888 26.0964C104.768 26.0982 104.649 26.076 104.538 26.031C104.427 25.9859 104.326 25.919 104.241 25.8342C104.156 25.7494 104.09 25.6485 104.045 25.5373C104 25.4262 103.978 25.3072 103.98 25.1874V24.6466C103.089 25.6244 101.969 26.0964 100.644 26.0964C99.5787 26.0964 98.7056 25.8159 98.0072 25.2223C97.6715 24.9592 97.4019 24.6212 97.22 24.2354C97.0381 23.8495 96.9489 23.4265 96.9596 23.0001C96.9596 22.0223 97.3956 21.2011 98.2686 20.5736C99.0379 20.0318 100.173 19.7524 101.655 19.7524H103.908C103.913 19.4885 103.848 19.2279 103.719 18.9976C103.59 18.7673 103.402 18.5756 103.174 18.4424C102.686 18.1249 101.969 17.9715 101.043 17.9715H100.973C100.287 17.9722 99.604 18.0797 98.9501 18.29ZM100.993 24.3842C101.595 24.377 102.186 24.2322 102.723 23.9609C103.281 23.6995 103.665 23.3852 103.91 23.0181V21.4636H101.919C100.801 21.4636 100.015 21.6212 99.5787 21.9006C99.1427 22.2181 98.9332 22.581 98.9332 23.0001C98.9332 23.3852 99.1078 23.7165 99.4919 23.9789C99.8464 24.2625 100.347 24.3821 100.993 24.3821V24.3842Z" fill="#007F41"/>
<path d="M110.162 25.1349C110.163 25.2629 110.138 25.3899 110.089 25.5082C110.04 25.6265 109.968 25.7337 109.877 25.8234C109.785 25.9131 109.677 25.9834 109.558 26.0302C109.438 26.077 109.311 26.0993 109.183 26.0958C109.053 26.1016 108.924 26.0796 108.803 26.0312C108.683 25.9828 108.574 25.9092 108.485 25.8153C108.391 25.7292 108.318 25.6236 108.27 25.5061C108.221 25.3885 108.199 25.2618 108.205 25.1349V12.7888C107.874 12.683 107.716 12.4396 107.716 12.0724V11.8809H110.162V25.1349Z" fill="#007F41"/>
<path d="M123.293 16.2333H123.119C123.012 16.24 122.905 16.2232 122.805 16.1838C122.706 16.1445 122.616 16.0837 122.543 16.0058C122.47 15.9434 122.412 15.8657 122.373 15.7782C122.333 15.6908 122.314 15.5958 122.315 15.4999C121.301 14.766 120.076 14.38 118.823 14.3994C117.531 14.3994 116.431 14.8883 115.523 15.8311C114.615 16.8089 114.178 17.9962 114.178 19.3941C114.178 20.792 114.615 21.9603 115.523 22.9032C115.943 23.3573 116.454 23.718 117.022 23.9618C117.591 24.2055 118.205 24.3269 118.823 24.318C120.045 24.318 121.128 24.0217 122.071 23.41C122.235 23.2947 122.429 23.228 122.63 23.2174C122.857 23.2193 123.076 23.3069 123.241 23.4629C123.332 23.5533 123.403 23.6624 123.447 23.7827C123.492 23.903 123.51 24.0315 123.5 24.1594C123.49 24.2873 123.452 24.4115 123.389 24.5233C123.326 24.6351 123.24 24.7319 123.135 24.8069C122.018 25.6799 120.586 26.1 118.839 26.1C117.968 26.1141 117.103 25.9494 116.298 25.6159C115.494 25.2825 114.766 24.7874 114.16 24.1614C112.85 22.8862 112.203 21.2968 112.203 19.3941C112.203 17.4724 112.85 15.8491 114.16 14.5391C114.766 13.913 115.494 13.418 116.298 13.0845C117.103 12.7511 117.968 12.5863 118.839 12.6004C120.307 12.6004 121.529 12.9327 122.543 13.5782C122.649 13.3666 122.839 13.247 123.137 13.247H123.293V16.2333Z" fill="#007F41"/>
<path d="M127.747 25.1228C127.749 25.2519 127.726 25.3801 127.678 25.5C127.63 25.6199 127.558 25.7291 127.468 25.8212C127.377 25.9137 127.268 25.9865 127.148 26.0347C127.028 26.083 126.899 26.1058 126.769 26.1016C126.64 26.1053 126.511 26.0824 126.391 26.0345C126.27 25.9866 126.161 25.9147 126.069 25.823C125.978 25.7314 125.906 25.622 125.858 25.5016C125.81 25.3812 125.787 25.2523 125.791 25.1228V12.7947C125.459 12.6888 125.302 12.4454 125.302 12.0782V11.8867H127.747V17.7153C128.463 16.7026 129.354 16.1957 130.401 16.1957C130.885 16.1904 131.365 16.289 131.808 16.4849C132.251 16.6808 132.647 16.9694 132.968 17.3312C133.632 18.0994 133.981 19.1122 133.981 20.4053V25.1228C133.983 25.2519 133.96 25.3801 133.912 25.5C133.864 25.6199 133.792 25.7291 133.702 25.8212C133.611 25.9138 133.502 25.9866 133.382 26.0348C133.262 26.0831 133.133 26.1058 133.003 26.1016C132.874 26.1051 132.745 26.0822 132.625 26.0342C132.505 25.9863 132.395 25.9143 132.304 25.8226C132.212 25.731 132.14 25.6217 132.093 25.5014C132.045 25.381 132.022 25.2522 132.026 25.1228V20.9841C132.026 19.9894 131.851 19.2381 131.537 18.7492C131.184 18.2603 130.643 18.0158 129.912 18.0158C129.524 18.0187 129.146 18.1406 128.83 18.3651C128.486 18.606 128.21 18.9305 128.027 19.3079C127.834 19.7799 127.747 20.4085 127.747 21.1767V25.1228Z" fill="#007F41"/>
<path d="M138.452 25.1222C138.454 25.2514 138.43 25.3797 138.382 25.4996C138.334 25.6195 138.263 25.7287 138.172 25.8206C138.077 25.9122 137.965 25.9842 137.842 26.0323C137.719 26.0804 137.588 26.1038 137.456 26.101C137.197 26.0993 136.949 25.9956 136.766 25.8124C136.583 25.6292 136.48 25.3811 136.479 25.1222V17.3517C136.165 17.2466 136.007 17.0022 136.007 16.6184V16.4258H138.452V25.1222ZM138.818 13.5094C138.822 13.8677 138.684 14.213 138.434 14.4702C138.308 14.6016 138.156 14.7051 137.988 14.7742C137.819 14.8433 137.638 14.8763 137.456 14.8713C137.096 14.8694 136.75 14.7252 136.495 14.4703C136.24 14.2153 136.096 13.87 136.094 13.5094C136.098 13.1493 136.243 12.805 136.497 12.5503C136.752 12.2957 137.096 12.1511 137.456 12.1475C137.638 12.1467 137.818 12.1818 137.985 12.2509C138.153 12.3199 138.306 12.4214 138.434 12.5496C138.677 12.8087 138.814 13.1492 138.818 13.5041V13.5094Z" fill="#007F41"/>
<path d="M145.878 26.0959C144.726 26.0959 143.748 25.6059 142.909 24.6282V28.7848C142.913 28.9142 142.89 29.0429 142.842 29.1631C142.794 29.2833 142.722 29.3925 142.63 29.484C142.539 29.5755 142.43 29.6474 142.31 29.6953C142.189 29.7432 142.061 29.7661 141.931 29.7626C141.802 29.7646 141.674 29.741 141.554 29.693C141.434 29.645 141.325 29.5737 141.233 29.4832C141.141 29.3924 141.068 29.2835 141.02 29.1633C140.972 29.0431 140.949 28.9142 140.953 28.7848V17.3466C140.622 17.2408 140.465 16.9974 140.465 16.6133V16.4207H142.822V17.7826C143.643 16.735 144.656 16.1953 145.878 16.1953C147.171 16.1953 148.253 16.6846 149.126 17.663C149.964 18.6392 150.417 19.887 150.401 21.1731C150.401 22.535 149.965 23.6874 149.126 24.6483C148.725 25.1144 148.226 25.486 147.665 25.7363C147.103 25.9866 146.493 26.1094 145.878 26.0959ZM142.927 21.7467C142.971 22.3873 143.237 22.9927 143.678 23.4588C143.931 23.7325 144.24 23.9488 144.583 24.0934C144.926 24.2379 145.296 24.3073 145.669 24.2969C146.542 24.2969 147.223 23.9996 147.712 23.389C148.166 22.7943 148.411 22.044 148.411 21.1668C148.411 20.2758 148.166 19.5244 147.712 18.9138C147.223 18.3202 146.542 18.0059 145.669 18.0059C145.298 17.9964 144.93 18.0644 144.587 18.2056C144.244 18.3469 143.935 18.5582 143.678 18.826C143.239 19.3075 142.974 19.9229 142.927 20.5731C142.873 20.9623 142.871 21.357 142.922 21.7467H142.927Z" fill="#007F41"/>
</g>
<defs>
<linearGradient id="paint0_linear_603_5609" x1="10.0593" y1="21.5539" x2="-0.456931" y2="21.453" gradientUnits="userSpaceOnUse">
<stop offset="0.1" stop-color="#EE7800"/>
<stop offset="0.26" stop-color="#EC7202"/>
<stop offset="0.46" stop-color="#E66207"/>
<stop offset="0.69" stop-color="#DB470F"/>
<stop offset="0.94" stop-color="#CD211B"/>
<stop offset="1" stop-color="#C9171E"/>
</linearGradient>
<linearGradient id="paint1_linear_603_5609" x1="11.1688" y1="10.59" x2="20.6325" y2="10.68" gradientUnits="userSpaceOnUse">
<stop stop-color="#21AEE5"/>
<stop offset="1" stop-color="#0055A7"/>
</linearGradient>
<linearGradient id="paint2_linear_603_5609" x1="12.363" y1="23.5458" x2="26.2717" y2="23.6791" gradientUnits="userSpaceOnUse">
<stop stop-color="#8FC31F"/>
<stop offset="0.14" stop-color="#89C121"/>
<stop offset="0.31" stop-color="#79BB27"/>
<stop offset="0.52" stop-color="#5EB030"/>
<stop offset="0.73" stop-color="#38A23D"/>
<stop offset="0.96" stop-color="#08904E"/>
<stop offset="1" stop-color="#008D51"/>
</linearGradient>
<clipPath id="clip0_603_5609">
<rect width="149.496" height="29.997" fill="white" transform="translate(0.899902 2.7002)"/>
</clipPath>
</defs>
</svg>
