<svg width="101" height="48" viewBox="0 0 101 48" fill="none" xmlns="http://www.w3.org/2000/svg">
<path d="M4.17962 20.5425C5.38053 20.5425 6.4166 20.0833 7.00528 19.4947V15.5741H3.89706V16.9987H5.45117V18.7176C5.20392 18.9178 4.78008 19.0355 4.35623 19.0355C2.64906 19.0355 1.77781 17.9052 1.77781 15.9979C1.77781 14.1377 2.77857 13.0074 4.23849 13.0074C5.01555 13.0074 5.51004 13.3253 5.94566 13.7374L6.864 12.6189C6.29887 12.0538 5.42762 11.5122 4.17962 11.5122C1.86023 11.5122 0 13.184 0 16.0568C0 18.9649 1.81313 20.5425 4.17962 20.5425Z" fill="white"/>
<path d="M8.73361 20.3777H10.4643V16.4571C10.8293 15.5034 11.4533 15.1502 11.9596 15.1502C12.2421 15.1502 12.4187 15.1973 12.6542 15.2562L12.9486 13.7727C12.7484 13.6785 12.5365 13.6314 12.1833 13.6314C11.5004 13.6314 10.7822 14.0906 10.3113 14.9618H10.2759L10.1347 13.7963H8.73361V20.3777Z" fill="white"/>
<path d="M16.5503 20.5425C17.3627 20.5425 18.1869 20.2717 18.8344 19.8243L18.2575 18.7529C17.7748 19.0473 17.3039 19.2121 16.774 19.2121C15.7968 19.2121 15.0904 18.6587 14.9374 17.5756H19.011C19.0464 17.4107 19.0817 17.1046 19.0817 16.775C19.0817 14.9501 18.1516 13.6314 16.3267 13.6314C14.7725 13.6314 13.2655 14.9501 13.2655 17.0929C13.2655 19.271 14.7019 20.5425 16.5503 20.5425ZM14.9138 16.4218C15.0551 15.4563 15.6673 14.9618 16.362 14.9618C17.2097 14.9618 17.61 15.527 17.61 16.4218H14.9138Z" fill="white"/>
<path d="M21.9017 20.5425C22.6552 20.5425 23.3146 20.1775 23.8915 19.683H23.9386L24.0681 20.3777H25.4809V16.5395C25.4809 14.6204 24.6214 13.6314 22.9496 13.6314C21.9017 13.6314 20.9716 14.02 20.1945 14.4909L20.8186 15.6447C21.419 15.2797 22.0195 15.0207 22.6317 15.0207C23.4441 15.0207 23.7149 15.5034 23.7502 16.151C21.1011 16.4453 19.9591 17.187 19.9591 18.5881C19.9591 19.7184 20.7244 20.5425 21.9017 20.5425ZM22.4669 19.1886C21.9606 19.1886 21.6074 18.9649 21.6074 18.4586C21.6074 17.8581 22.1372 17.4225 23.7502 17.2224V18.5528C23.3263 18.9649 22.9613 19.1886 22.4669 19.1886Z" fill="white"/>
<path d="M29.3592 20.5425C29.9479 20.5425 30.407 20.413 30.7602 20.2953L30.4777 19.0355C30.2893 19.1061 30.0421 19.1886 29.8184 19.1886C29.2414 19.1886 28.9236 18.8353 28.9236 18.0818V15.1502H30.5601V13.7963H28.9236V12.0067H27.4872L27.2988 13.7963L26.2745 13.8669V15.1502H27.1928V18.0818C27.1928 19.5535 27.7933 20.5425 29.3592 20.5425Z" fill="white"/>
<path d="M34.7216 20.3777H36.4641V17.2812H37.6297C39.5017 17.2812 40.9851 16.3982 40.9851 14.4085C40.9851 12.3363 39.5017 11.6652 37.5826 11.6652H34.7216V20.3777ZM36.4641 15.9037V13.0545H37.4531C38.654 13.0545 39.2897 13.3842 39.2897 14.4085C39.2897 15.3975 38.7128 15.9037 37.5119 15.9037H36.4641Z" fill="white"/>
<path d="M44.938 20.5425C45.7504 20.5425 46.5746 20.2717 47.2221 19.8243L46.6452 18.7529C46.1625 19.0473 45.6915 19.2121 45.1617 19.2121C44.1845 19.2121 43.4781 18.6587 43.325 17.5756H47.3987C47.434 17.4107 47.4693 17.1046 47.4693 16.775C47.4693 14.9501 46.5392 13.6314 44.7143 13.6314C43.1602 13.6314 41.6532 14.9501 41.6532 17.0929C41.6532 19.271 43.0896 20.5425 44.938 20.5425ZM43.3015 16.4218C43.4428 15.4563 44.055 14.9618 44.7496 14.9618C45.5973 14.9618 45.9977 15.527 45.9977 16.4218H43.3015Z" fill="white"/>
<path d="M51.6614 20.5425C53.3097 20.5425 54.8167 19.271 54.8167 17.0929C54.8167 14.903 53.3097 13.6314 51.6614 13.6314C50.0013 13.6314 48.4943 14.903 48.4943 17.0929C48.4943 19.271 50.0013 20.5425 51.6614 20.5425ZM51.6614 19.1415C50.7548 19.1415 50.2603 18.3291 50.2603 17.0929C50.2603 15.8449 50.7548 15.0443 51.6614 15.0443C52.5562 15.0443 53.0507 15.8449 53.0507 17.0929C53.0507 18.3291 52.5562 19.1415 51.6614 19.1415Z" fill="white"/>
<path d="M56.2764 22.909H58.0071V20.9075L57.9482 19.8361C58.4427 20.2953 59.0078 20.5425 59.573 20.5425C61.0211 20.5425 62.3751 19.2474 62.3751 16.9869C62.3751 14.9501 61.4096 13.6314 59.7849 13.6314C59.0785 13.6314 58.3956 13.9964 57.854 14.4791H57.8187L57.6774 13.7963H56.2764V22.909ZM59.1962 19.1179C58.843 19.1179 58.4192 19.0002 58.0071 18.6352V15.7271C58.4545 15.268 58.8548 15.0443 59.2904 15.0443C60.2087 15.0443 60.5973 15.7389 60.5973 17.0104C60.5973 18.435 59.985 19.1179 59.1962 19.1179Z" fill="white"/>
<path d="M65.4781 20.5425C65.8901 20.5425 66.1609 20.4719 66.3611 20.4012L66.1491 19.1179C66.0314 19.1415 65.9843 19.1415 65.9255 19.1415C65.7606 19.1415 65.584 19.012 65.584 18.5999V10.9941H63.8533V18.5292C63.8533 19.7537 64.2654 20.5425 65.4781 20.5425Z" fill="white"/>
<path d="M70.4398 20.5425C71.2522 20.5425 72.0763 20.2717 72.7239 19.8243L72.147 18.7529C71.6642 19.0473 71.1933 19.2121 70.6635 19.2121C69.6863 19.2121 68.9799 18.6587 68.8268 17.5756H72.9005C72.9358 17.4107 72.9711 17.1046 72.9711 16.775C72.9711 14.9501 72.041 13.6314 70.2161 13.6314C68.662 13.6314 67.155 14.9501 67.155 17.0929C67.155 19.271 68.5913 20.5425 70.4398 20.5425ZM68.8033 16.4218C68.9445 15.4563 69.5568 14.9618 70.2514 14.9618C71.0991 14.9618 71.4994 15.527 71.4994 16.4218H68.8033Z" fill="white"/>
<path d="M4.17962 36.8444C5.38053 36.8444 6.4166 36.3852 7.00528 35.7966V31.8759H3.89706V33.3006H5.45117V35.0195C5.20392 35.2196 4.78008 35.3374 4.35623 35.3374C2.64906 35.3374 1.77781 34.2071 1.77781 32.2998C1.77781 30.4396 2.77857 29.3093 4.23849 29.3093C5.01555 29.3093 5.51004 29.6272 5.94566 30.0393L6.864 28.9208C6.29887 28.3556 5.42762 27.8141 4.17962 27.8141C1.86023 27.8141 0 29.4859 0 32.3587C0 35.2667 1.81313 36.8444 4.17962 36.8444Z" fill="white"/>
<path d="M8.73361 36.6796H10.4643V32.759C10.8293 31.8053 11.4533 31.4521 11.9596 31.4521C12.2421 31.4521 12.4187 31.4992 12.6542 31.5581L12.9486 30.0746C12.7484 29.9804 12.5365 29.9333 12.1833 29.9333C11.5004 29.9333 10.7822 30.3925 10.3113 31.2637H10.2759L10.1347 30.0981H8.73361V36.6796Z" fill="white"/>
<path d="M16.5503 36.8444C17.3627 36.8444 18.1869 36.5736 18.8344 36.1262L18.2575 35.0548C17.7748 35.3492 17.3039 35.514 16.774 35.514C15.7968 35.514 15.0904 34.9606 14.9374 33.8775H19.011C19.0464 33.7126 19.0817 33.4065 19.0817 33.0769C19.0817 31.252 18.1516 29.9333 16.3267 29.9333C14.7725 29.9333 13.2655 31.2519 13.2655 33.3947C13.2655 35.5729 14.7019 36.8444 16.5503 36.8444ZM14.9138 32.7236C15.0551 31.7582 15.6673 31.2637 16.362 31.2637C17.2097 31.2637 17.61 31.8289 17.61 32.7236H14.9138Z" fill="white"/>
<path d="M21.9017 36.8444C22.6552 36.8444 23.3146 36.4794 23.8915 35.9849H23.9386L24.0681 36.6796H25.4809V32.8414C25.4809 30.9223 24.6214 29.9333 22.9496 29.9333C21.9017 29.9333 20.9716 30.3218 20.1945 30.7928L20.8186 31.9466C21.419 31.5816 22.0195 31.3226 22.6317 31.3226C23.4441 31.3226 23.7149 31.8053 23.7502 32.4529C21.1011 32.7472 19.9591 33.4889 19.9591 34.89C19.9591 36.0203 20.7244 36.8444 21.9017 36.8444ZM22.4669 35.4904C21.9606 35.4904 21.6074 35.2667 21.6074 34.7605C21.6074 34.16 22.1372 33.7244 23.7502 33.5243V34.8547C23.3263 35.2667 22.9613 35.4904 22.4669 35.4904Z" fill="white"/>
<path d="M29.3592 36.8444C29.9479 36.8444 30.407 36.7149 30.7602 36.5972L30.4777 35.3374C30.2893 35.408 30.0421 35.4904 29.8184 35.4904C29.2414 35.4904 28.9236 35.1372 28.9236 34.3837V31.4521H30.5601V30.0981H28.9236V28.3086H27.4872L27.2988 30.0981L26.2745 30.1688V31.4521H27.1928V34.3837C27.1928 35.8554 27.7933 36.8444 29.3592 36.8444Z" fill="white"/>
<path d="M36.4523 36.6796H38.1948V29.4153H40.6555V27.9671H33.9916V29.4153H36.4523V36.6796Z" fill="white"/>
<path d="M43.7538 36.8444C44.5661 36.8444 45.3903 36.5736 46.0378 36.1262L45.4609 35.0548C44.9782 35.3492 44.5073 35.514 43.9775 35.514C43.0003 35.514 42.2938 34.9606 42.1408 33.8775H46.2145C46.2498 33.7126 46.2851 33.4065 46.2851 33.0769C46.2851 31.252 45.355 29.9333 43.5301 29.9333C41.976 29.9333 40.4689 31.2519 40.4689 33.3947C40.4689 35.5729 41.9053 36.8444 43.7538 36.8444ZM42.1172 32.7236C42.2585 31.7582 42.8708 31.2637 43.5654 31.2637C44.4131 31.2637 44.8134 31.8289 44.8134 32.7236H42.1172Z" fill="white"/>
<path d="M50.5125 36.8444C51.2424 36.8444 52.0548 36.5972 52.6788 36.0556L51.9959 34.9135C51.6309 35.2079 51.1835 35.4433 50.7008 35.4433C49.7589 35.4433 49.0761 34.631 49.0761 33.3947C49.0761 32.1467 49.7472 31.3461 50.7715 31.3461C51.1247 31.3461 51.4426 31.4874 51.7722 31.77L52.5846 30.6633C52.1019 30.2394 51.4897 29.9333 50.6655 29.9333C48.8759 29.9333 47.31 31.2049 47.31 33.3947C47.31 35.5729 48.6993 36.8444 50.5125 36.8444Z" fill="white"/>
<path d="M53.9308 36.6796H55.6616V32.1467C56.1443 31.6758 56.4857 31.4168 57.0273 31.4168C57.6631 31.4168 57.9574 31.7582 57.9574 32.7943V36.6796H59.6881V32.5706C59.6881 30.9223 59.0641 29.9333 57.6513 29.9333C56.7565 29.9333 56.0972 30.4043 55.5791 30.8987L55.6616 29.6625V27.296H53.9308V36.6796Z" fill="white"/>
<path d="M61.4618 36.6796H63.1925V32.1467C63.6752 31.6758 64.0167 31.4168 64.5582 31.4168C65.194 31.4168 65.4884 31.7582 65.4884 32.7943V36.6796H67.2191V32.5706C67.2191 30.9223 66.5951 29.9333 65.1822 29.9333C64.2875 29.9333 63.6046 30.4043 63.0394 30.9694H63.0041L62.8628 30.0981H61.4618V36.6796Z" fill="white"/>
<path d="M71.7593 36.8444C73.4076 36.8444 74.9146 35.5729 74.9146 33.3947C74.9146 31.2049 73.4076 29.9333 71.7593 29.9333C70.0992 29.9333 68.5922 31.2049 68.5922 33.3947C68.5922 35.5729 70.0992 36.8444 71.7593 36.8444ZM71.7593 35.4433C70.8527 35.4433 70.3582 34.631 70.3582 33.3947C70.3582 32.1467 70.8527 31.3461 71.7593 31.3461C72.6541 31.3461 73.1485 32.1467 73.1485 33.3947C73.1485 34.631 72.6541 35.4433 71.7593 35.4433Z" fill="white"/>
<path d="M77.999 36.8444C78.4111 36.8444 78.6819 36.7738 78.882 36.7031L78.6701 35.4198C78.5523 35.4433 78.5052 35.4433 78.4464 35.4433C78.2816 35.4433 78.1049 35.3138 78.1049 34.9018V27.296H76.3742V34.8311C76.3742 36.0556 76.7863 36.8444 77.999 36.8444Z" fill="white"/>
<path d="M82.843 36.8444C84.4913 36.8444 85.9983 35.5729 85.9983 33.3947C85.9983 31.2049 84.4913 29.9333 82.843 29.9333C81.1829 29.9333 79.6759 31.2049 79.6759 33.3947C79.6759 35.5729 81.1829 36.8444 82.843 36.8444ZM82.843 35.4433C81.9364 35.4433 81.4419 34.631 81.4419 33.3947C81.4419 32.1467 81.9364 31.3461 82.843 31.3461C83.7378 31.3461 84.2323 32.1467 84.2323 33.3947C84.2323 34.631 83.7378 35.4433 82.843 35.4433Z" fill="white"/>
<path d="M89.7656 39.5406C91.9672 39.5406 93.3683 38.5398 93.3683 37.2094C93.3683 36.0438 92.4971 35.5611 90.9076 35.5611H89.7774C89.0121 35.5611 88.7413 35.3609 88.7413 35.0195C88.7413 34.7487 88.8472 34.6074 89.0238 34.4426C89.3182 34.5486 89.6125 34.5956 89.8715 34.5956C91.2962 34.5956 92.4264 33.8539 92.4264 32.3587C92.4264 31.9584 92.2969 31.5934 92.1203 31.3697H93.2506V30.0981H90.8723C90.6015 29.9922 90.2483 29.9333 89.8715 29.9333C88.4823 29.9333 87.2107 30.7575 87.2107 32.3116C87.2107 33.0886 87.6463 33.7126 88.1055 34.0423V34.0894C87.6934 34.372 87.3638 34.8193 87.3638 35.3138C87.3638 35.8554 87.6228 36.2086 87.9642 36.4323V36.4912C87.352 36.8209 87.0223 37.3036 87.0223 37.8569C87.0223 39.0107 88.2232 39.5406 89.7656 39.5406ZM89.8715 33.536C89.2946 33.536 88.8355 33.0886 88.8355 32.3116C88.8355 31.5345 89.2946 31.1107 89.8715 31.1107C90.4602 31.1107 90.9076 31.5345 90.9076 32.3116C90.9076 33.0886 90.4484 33.536 89.8715 33.536ZM90.0364 38.4456C89.0709 38.4456 88.4587 38.1395 88.4587 37.5861C88.4587 37.3153 88.5882 37.0563 88.8943 36.8091C89.1298 36.8797 89.4006 36.9033 89.8009 36.9033H90.6015C91.3079 36.9033 91.6964 37.0328 91.6964 37.5037C91.6964 38.01 91.0254 38.4456 90.0364 38.4456Z" fill="white"/>
<path d="M95.0826 39.3286C96.5661 39.3286 97.2725 38.4338 97.8494 36.8915L100.192 30.0981H98.5323L97.614 33.1475C97.4609 33.7715 97.2961 34.3955 97.1548 35.0195H97.0959C96.8958 34.3837 96.7309 33.748 96.5308 33.1475L95.4947 30.0981H93.7405L96.3071 36.5618L96.2011 36.9504C96.001 37.539 95.6242 37.9629 94.9649 37.9629C94.8001 37.9629 94.6235 37.904 94.5057 37.8687L94.1879 39.1991C94.4351 39.2815 94.7059 39.3286 95.0826 39.3286Z" fill="white"/>
<path fill-rule="evenodd" clip-rule="evenodd" d="M37.402 0.90566C30.0073 0.90566 23.4245 4.38056 19.1969 9.78833L18.4834 9.23054C22.8753 3.61266 29.7169 0 37.402 0C45.0871 0 51.9287 3.61266 56.3206 9.23054L55.6071 9.78833C51.3794 4.38056 44.7966 0.90566 37.402 0.90566ZM19.9275 39.1C24.163 43.997 30.4205 47.0943 37.402 47.0943C44.3835 47.0943 50.641 43.997 54.8764 39.1L55.5614 39.6925C51.1613 44.7799 44.6574 48 37.402 48C30.1465 48 23.6427 44.7799 19.2426 39.6925L19.9275 39.1Z" fill="white"/>
</svg>
