<svg width="120" height="40" viewBox="0 0 120 40" fill="none" xmlns="http://www.w3.org/2000/svg">
<g clip-path="url(#clip0_200_2381)">
<path d="M37.5674 14.3259H32.0312V29.3237H37.5737C42.1463 29.3237 45.4655 26.1794 45.4655 21.8498C45.4655 17.5201 42.2912 14.3197 37.5737 14.3259M42.7887 21.8373C42.7887 24.9941 40.6725 27.0279 37.4982 27.0279H34.708V16.6217H37.4982C40.767 16.6217 42.7887 18.5807 42.7887 21.8311V21.8373Z" fill="white"/>
<path d="M56.2422 21.5628C57.2311 20.8953 57.8798 19.5664 57.8798 18.1752C57.8798 15.7671 55.9273 14.3259 52.6585 14.3259H46.6562V29.3237H52.7656C56.4627 29.3237 58.6671 27.7204 58.6671 25.0377C58.6671 23.4344 57.8735 22.2927 56.2422 21.5628ZM51.6634 20.4835C51.1721 20.602 50.8761 20.8953 50.8005 21.3507C50.7438 21.7 50.8194 22.0619 51.0147 22.3302C51.1658 22.5423 51.38 22.6795 51.6319 22.717C51.9783 22.7731 52.3625 22.7918 52.7593 22.8105C53.9497 22.8667 55.2156 22.9166 55.7762 23.9647C56.11 24.5886 56.0596 25.3934 55.6502 25.9798C55.2282 26.5849 54.4031 26.9468 53.1876 27.0217C53.0301 27.0279 52.8727 27.0341 52.6963 27.0341H49.3267V16.6218H52.3814C54.3905 16.6218 55.203 17.1957 55.203 18.4123C55.203 19.0798 54.9448 19.6974 54.4346 20.0593C53.9749 20.3899 53.3135 20.3962 52.6711 20.4024C52.3877 20.4024 51.9783 20.4086 51.6571 20.4773L51.6634 20.4835Z" fill="white"/>
<path d="M9.59631 16.6779C8.65157 15.817 7.49898 15.1057 6.11336 14.6254C5.41425 14.3821 4.26796 14.0265 3.29172 14.0265C2.44775 14.0265 1.72975 14.2947 1.5471 15.1245C1.20069 16.7091 1.36445 30.3219 1.48412 31.9003C1.57229 33.0607 2.06356 33.7345 3.43658 33.7095C12.9974 33.5598 15.5041 22.0806 9.59631 16.6841V16.6779Z" fill="url(#paint0_linear_200_2381)"/>
<path d="M20.5428 5.74147C19.6862 4.96163 18.6281 4.31281 17.3811 3.8761C16.7449 3.65151 15.7057 3.33333 14.8176 3.33333C14.0493 3.33333 13.4005 3.57664 13.2305 4.33152C12.9156 5.76642 13.0667 18.1315 13.1738 19.5664C13.2557 20.6145 13.7029 21.2259 14.9436 21.2072C23.6227 21.0637 25.9026 10.6451 20.5428 5.74147Z" fill="url(#paint1_linear_200_2381)"/>
<path d="M24.3783 17.2331C23.3013 16.2474 21.9723 15.4364 20.4041 14.8936C19.6042 14.6129 18.2941 14.2074 17.1793 14.2074C16.2157 14.2074 15.3906 14.5131 15.1828 15.4614C14.7797 17.2643 14.9749 32.7987 15.1135 34.6017C15.2206 35.9243 15.7748 36.6916 17.3368 36.6667C28.2454 36.4982 31.1111 23.397 24.3783 17.2394V17.2331Z" fill="url(#paint2_linear_200_2381)"/>
</g>
<path d="M82 16C82 16.7364 81.403 17.3333 80.6667 17.3333C79.9303 17.3333 79.3333 16.7364 79.3333 16C79.3333 15.2636 79.9303 14.6667 80.6667 14.6667C81.403 14.6667 82 15.2636 82 16Z" fill="white"/>
<path d="M64 14.6667H67.3333V16H64V14.6667Z" fill="white"/>
<path d="M64 28H67.3333V29.3333H64V28Z" fill="white"/>
<path d="M73.3333 14.6667H76.6667V16H73.3333V14.6667Z" fill="white"/>
<path d="M106 14.6667H108.667V16H106V14.6667Z" fill="white"/>
<path d="M83.9533 16.4067L85.3594 15.6667V17H83.9533V16.4067Z" fill="white"/>
<path d="M94.0261 15.6667H95.3333V17H94.0261V15.6667Z" fill="white"/>
<path d="M73.3333 28H76.6667V29.3333H73.3333V28Z" fill="white"/>
<path d="M88 28H91.3333V29.3333H88V28Z" fill="white"/>
<path d="M66.8333 21.3067H73.96V23.0467H66.8333V21.3067ZM73.96 15.6867H75.9V28.6667H73.96V15.6867ZM64.9133 15.6867H66.8333V28.6667H64.9133V15.6867Z" fill="white"/>
<path d="M79.5749 18.6867H81.4749V29.3333H79.5749V18.6867Z" fill="white"/>
<path d="M83.9533 14.6867H95.3333V16.4067H83.9533V14.6867ZM88.6733 16.4067H90.6133L90.5872 28.6667H88.6472L88.6733 16.4067Z" fill="white"/>
<path d="M102.246 25.8733H104.066C103.959 26.5267 103.706 27.1133 103.306 27.6333C102.906 28.1533 102.379 28.5667 101.726 28.8733C101.073 29.18 100.306 29.3333 99.4261 29.3333C98.3861 29.3333 97.4594 29.1133 96.6461 28.6733C95.8327 28.2333 95.1927 27.6267 94.7261 26.8533C94.2594 26.08 94.0261 25.18 94.0261 24.1533C94.0261 23.1133 94.2527 22.2067 94.7061 21.4333C95.1594 20.6467 95.7861 20.0333 96.5861 19.5933C97.3861 19.1533 98.2994 18.9333 99.3261 18.9333C100.406 18.9333 101.313 19.1467 102.046 19.5733C102.779 20 103.319 20.6333 103.666 21.4733C104.026 22.3 104.173 23.3333 104.106 24.5733H95.9261C95.9927 25.1733 96.1727 25.7067 96.4661 26.1733C96.7727 26.64 97.1727 27.0067 97.6661 27.2733C98.1727 27.54 98.7527 27.6733 99.4061 27.6733C100.139 27.6733 100.753 27.5067 101.246 27.1733C101.739 26.84 102.073 26.4067 102.246 25.8733ZM99.3461 20.5733C98.4794 20.5733 97.7594 20.8067 97.1861 21.2733C96.6127 21.7267 96.2327 22.3333 96.0461 23.0933H102.186C102.133 22.28 101.839 21.66 101.306 21.2333C100.773 20.7933 100.119 20.5733 99.3461 20.5733Z" fill="white"/>
<path d="M106.982 14.6867H108.882L108.922 29.3333H107.022L106.982 14.6867ZM116.327 18.4867L110.802 23.7067L110.842 22.5067L117 29.3333H114.58L108.922 23.0867L113.667 18.4867H116.327Z" fill="white"/>
<path d="M110.747 22.3333L111.414 22.6667V24H110.747V22.3333Z" fill="white"/>
<defs>
<linearGradient id="paint0_linear_200_2381" x1="12.222" y1="24.9959" x2="0.399817" y2="24.8814" gradientUnits="userSpaceOnUse">
<stop offset="0.1" stop-color="#EE7800"/>
<stop offset="0.26" stop-color="#EB7201"/>
<stop offset="0.46" stop-color="#E56106"/>
<stop offset="0.69" stop-color="#DB460F"/>
<stop offset="0.94" stop-color="#CC211A"/>
<stop offset="1" stop-color="#C9171E"/>
</linearGradient>
<linearGradient id="paint1_linear_200_2381" x1="14.3716" y1="12.2007" x2="24.9519" y2="12.3032" gradientUnits="userSpaceOnUse">
<stop stop-color="#21AEE5"/>
<stop offset="0.55" stop-color="#0F7EC3"/>
<stop offset="1" stop-color="#0055A7"/>
</linearGradient>
<linearGradient id="paint2_linear_200_2381" x1="14.2367" y1="23.5641" x2="29.8747" y2="23.7156" gradientUnits="userSpaceOnUse">
<stop stop-color="#8FC31F"/>
<stop offset="0.14" stop-color="#89C021"/>
<stop offset="0.31" stop-color="#78BA26"/>
<stop offset="0.52" stop-color="#5DB030"/>
<stop offset="0.73" stop-color="#37A23D"/>
<stop offset="0.96" stop-color="#08904E"/>
<stop offset="1" stop-color="#008D51"/>
</linearGradient>
<clipPath id="clip0_200_2381">
<rect width="57.3333" height="33.3333" fill="white" transform="translate(1.33301 3.33333)"/>
</clipPath>
</defs>
</svg>
