<svg width="120" height="40" viewBox="0 0 120 40" fill="none" xmlns="http://www.w3.org/2000/svg">
<g clip-path="url(#clip0_517_7398)">
<path d="M37.5674 14.3252H32.0312V29.323H37.5737C42.1463 29.323 45.4655 26.1787 45.4655 21.8491C45.4655 17.5194 42.2912 14.319 37.5737 14.3252M42.7887 21.8366C42.7887 24.9934 40.6725 27.0272 37.4982 27.0272H34.708V16.621H37.4982C40.767 16.621 42.7887 18.58 42.7887 21.8304V21.8366Z" fill="#007F41"/>
<path d="M56.2418 21.5621C57.2306 20.8945 57.8793 19.5657 57.8793 18.1745C57.8793 15.7663 55.9268 14.3252 52.658 14.3252H46.6558V29.323H52.7651C56.4622 29.323 58.6666 27.7197 58.6666 25.037C58.6666 23.4337 57.873 22.292 56.2418 21.5621ZM51.6629 20.4828C51.1716 20.6013 50.8756 20.8945 50.8 21.35C50.7434 21.6993 50.8189 22.0612 51.0142 22.3294C51.1653 22.5416 51.3795 22.6788 51.6314 22.7162C51.9778 22.7724 52.362 22.7911 52.7588 22.8098C53.9492 22.866 55.2151 22.9159 55.7757 23.964C56.1095 24.5878 56.0591 25.3926 55.6497 25.9791C55.2277 26.5842 54.4027 26.9461 53.1871 27.0209C53.0296 27.0272 52.8722 27.0334 52.6958 27.0334H49.3262V16.621H52.3809C54.3901 16.621 55.2025 17.195 55.2025 18.4115C55.2025 19.0791 54.9443 19.6967 54.4341 20.0586C53.9744 20.3892 53.3131 20.3954 52.6706 20.4017C52.3872 20.4017 51.9778 20.4079 51.6566 20.4765L51.6629 20.4828Z" fill="#007F41"/>
<path d="M9.5968 16.6778C8.65206 15.8169 7.49947 15.1057 6.11385 14.6253C5.41474 14.382 4.26845 14.0264 3.29221 14.0264C2.44824 14.0264 1.73024 14.2946 1.54759 15.1244C1.20118 16.709 1.36494 30.3218 1.4846 31.9002C1.57278 33.0606 2.06405 33.7344 3.43707 33.7094C12.9979 33.5597 15.5046 22.0805 9.5968 16.6841V16.6778Z" fill="url(#paint0_linear_517_7398)"/>
<path d="M20.5433 5.74114C19.6867 4.96131 18.6286 4.31248 17.3815 3.87577C16.7454 3.65118 15.7062 3.33301 14.8181 3.33301C14.0497 3.33301 13.401 3.57632 13.231 4.3312C12.9161 5.7661 13.0672 18.1312 13.1743 19.5661C13.2562 20.6142 13.7033 21.2256 14.9441 21.2069C23.6231 21.0634 25.9031 10.6448 20.5433 5.74114Z" fill="url(#paint1_linear_517_7398)"/>
<path d="M24.3788 17.2328C23.3018 16.2471 21.9728 15.4361 20.4045 14.8933C19.6047 14.6125 18.2946 14.207 17.1798 14.207C16.2162 14.207 15.3911 14.5127 15.1833 15.461C14.7802 17.264 14.9754 32.7983 15.114 34.6013C15.2211 35.9239 15.7753 36.6913 17.3373 36.6663C28.2459 36.4979 31.1116 23.3966 24.3788 17.239V17.2328Z" fill="url(#paint2_linear_517_7398)"/>
</g>
<path d="M82 16.0003C82 16.7367 81.403 17.3337 80.6667 17.3337C79.9303 17.3337 79.3333 16.7367 79.3333 16.0003C79.3333 15.2639 79.9303 14.667 80.6667 14.667C81.403 14.667 82 15.2639 82 16.0003Z" fill="#007F41"/>
<path d="M64 14.667H67.3333V16.0003H64V14.667Z" fill="#007F41"/>
<path d="M64 28.0003H67.3333V29.3337H64V28.0003Z" fill="#007F41"/>
<path d="M73.3333 14.667H76.6667V16.0003H73.3333V14.667Z" fill="#007F41"/>
<path d="M106 14.667H108.667V16.0003H106V14.667Z" fill="#007F41"/>
<path d="M83.9533 16.407L85.3594 15.667V17.0003H83.9533V16.407Z" fill="#007F41"/>
<path d="M94.0261 15.667H95.3333V17.0003H94.0261V15.667Z" fill="#007F41"/>
<path d="M73.3333 28.0003H76.6667V29.3337H73.3333V28.0003Z" fill="#007F41"/>
<path d="M88 28.0003H91.3333V29.3337H88V28.0003Z" fill="#007F41"/>
<path d="M66.8333 21.307H73.96V23.047H66.8333V21.307ZM73.96 15.687H75.9V28.667H73.96V15.687ZM64.9133 15.687H66.8333V28.667H64.9133V15.687Z" fill="#007F41"/>
<path d="M79.5749 18.687H81.4749V29.3337H79.5749V18.687Z" fill="#007F41"/>
<path d="M83.9533 14.687H95.3333V16.407H83.9533V14.687ZM88.6733 16.407H90.6133L90.5872 28.667H88.6472L88.6733 16.407Z" fill="#007F41"/>
<path d="M102.246 25.8737H104.066C103.959 26.527 103.706 27.1137 103.306 27.6337C102.906 28.1537 102.379 28.567 101.726 28.8737C101.073 29.1803 100.306 29.3337 99.4261 29.3337C98.3861 29.3337 97.4594 29.1137 96.6461 28.6737C95.8328 28.2337 95.1928 27.627 94.7261 26.8537C94.2594 26.0803 94.0261 25.1803 94.0261 24.1537C94.0261 23.1137 94.2528 22.207 94.7061 21.4337C95.1594 20.647 95.7861 20.0337 96.5861 19.5937C97.3861 19.1537 98.2994 18.9337 99.3261 18.9337C100.406 18.9337 101.313 19.147 102.046 19.5737C102.779 20.0003 103.319 20.6337 103.666 21.4737C104.026 22.3003 104.173 23.3337 104.106 24.5737H95.9261C95.9928 25.1737 96.1728 25.707 96.4661 26.1737C96.7728 26.6403 97.1728 27.007 97.6661 27.2737C98.1728 27.5403 98.7528 27.6737 99.4061 27.6737C100.139 27.6737 100.753 27.507 101.246 27.1737C101.739 26.8403 102.073 26.407 102.246 25.8737ZM99.3461 20.5737C98.4794 20.5737 97.7594 20.807 97.1861 21.2737C96.6128 21.727 96.2328 22.3337 96.0461 23.0937H102.186C102.133 22.2803 101.839 21.6603 101.306 21.2337C100.773 20.7937 100.119 20.5737 99.3461 20.5737Z" fill="#007F41"/>
<path d="M106.982 14.687H108.882L108.922 29.3337H107.022L106.982 14.687ZM116.327 18.487L110.802 23.707L110.842 22.507L117 29.3337H114.58L108.922 23.087L113.667 18.487H116.327Z" fill="#007F41"/>
<path d="M110.747 22.333L111.413 22.6663V23.9997H110.747V22.333Z" fill="#007F41"/>
<defs>
<linearGradient id="paint0_linear_517_7398" x1="12.2225" y1="24.9959" x2="0.400304" y2="24.8813" gradientUnits="userSpaceOnUse">
<stop offset="0.1" stop-color="#EE7800"/>
<stop offset="0.26" stop-color="#EB7201"/>
<stop offset="0.46" stop-color="#E56106"/>
<stop offset="0.69" stop-color="#DB460F"/>
<stop offset="0.94" stop-color="#CC211A"/>
<stop offset="1" stop-color="#C9171E"/>
</linearGradient>
<linearGradient id="paint1_linear_517_7398" x1="14.3721" y1="12.2004" x2="24.9524" y2="12.3029" gradientUnits="userSpaceOnUse">
<stop stop-color="#21AEE5"/>
<stop offset="0.55" stop-color="#0F7EC3"/>
<stop offset="1" stop-color="#0055A7"/>
</linearGradient>
<linearGradient id="paint2_linear_517_7398" x1="14.2372" y1="23.5637" x2="29.8752" y2="23.7153" gradientUnits="userSpaceOnUse">
<stop stop-color="#8FC31F"/>
<stop offset="0.14" stop-color="#89C021"/>
<stop offset="0.31" stop-color="#78BA26"/>
<stop offset="0.52" stop-color="#5DB030"/>
<stop offset="0.73" stop-color="#37A23D"/>
<stop offset="0.96" stop-color="#08904E"/>
<stop offset="1" stop-color="#008D51"/>
</linearGradient>
<clipPath id="clip0_517_7398">
<rect width="57.3333" height="33.3333" fill="white" transform="translate(1.3335 3.33301)"/>
</clipPath>
</defs>
</svg>
